<?xml version="1.0"?>
<svg xmlns:xlink="http://www.w3.org/1999/xlink" xmlns:ev="http://www.w3.org/2001/xml-events" xmlns="http://www.w3.org/2000/svg" height="6400" viewBox="0 0 1600 6400" width="1600">
	<script>
		function handleKdn(event) {return parent.window.handleKdn(event)};

		function handleBoxMdn(event,jnum) {return parent.window.handleBoxMdn(document,event,jnum)};
		function handleBoxMove(event,jnum) {return parent.window.handleBoxMove(document,event,jnum)};
		function handleBoxMup(event,jnum) {return parent.window.handleBoxMup(document,jnum)};

		function handleRowMov(event,jnum,jnumBox) {return parent.window.handleRowMov(event,jnum,jnumBox)};
		function handleRowMou(jnum,jnumBox) {return parent.window.handleRowMou(jnum,jnumBox)};
		function handleRowClick(event,jnum,jnumBox,num) {return parent.window.handleRowClick(event,jnum,jnumBox,num)};

		document.onkeydown = handleKdn;
	</script>
	<style>
		<!-- require inline CSS for standalone view and export to .pdf -->
		g {
			cursor:pointer;
		}
		.box {
			stroke:#000000;
			fill:#FFFFFF;
			stroke-width:1.333px;
			filter:drop-shadow(5px 5px 4px #3F3F3F);
		}
		.boxlite {
			stroke:#7F7F7F;
			fill:#FFFFFF;
			stroke-width:1.333px;
			filter:drop-shadow(5px 5px 4px #BFBFBF);
		}
		.link {
			stroke:#000000;
			stroke-width:0.5px;
		}
		.linklite {
			stroke:#7F7F7F;
			stroke-width:0.5px;
		}
		.icon {
			stroke:#000000;
			fill:#FFFFFF;
			stroke-width:1px;
			cursor:pointer;
		}
		.icon:hover {
			stroke:#FF7F00;
		}
		.bihdr {
			font-family:Helvetica,sans-serif;
			font-size:11px;
			font-weight:bold;
			fill:#000000;
			text-anchor:middle;
		}
		.bihdrlite {
			font-family:Helvetica,sans-serif;
			font-size:11px;
			font-weight:bold;
			fill:#7F7F7F;
			text-anchor:middle;
		}
		.bi {
			font-family:Helvetica,sans-serif;
			font-size:9px;
			fill:#000000;
		}
		.bifil {
			font-family:Helvetica,sans-serif;
			font-size:9px;
			fill:#007FFF;
		}
		.bitbl {
			font-family:Helvetica,sans-serif;
			font-size:9px;
			fill:#0000FF;
		}
		.biretr {
			font-family:Helvetica,sans-serif;
			font-size:9px;
			fill:#FF7F00;
		}
		.bivec {
			font-family:Helvetica,sans-serif;
			font-size:9px;
			fill:#7F7F7F;
		}
		.biaffil {
			font-family:Helvetica,sans-serif;
			font-size:9px;
			fill:#0000FF;
		}
		.bipref {
			font-family:Helvetica,sans-serif;
			font-size:9px;
			fill:#007FFF;
		}
		.biinc {
			font-family:Helvetica,sans-serif;
			font-size:9px;
			fill:#00FFFF;
		}
		.bijovr {
			font-family:Helvetica,sans-serif;
			font-size:9px;
			fill:#007F00;
		}
		.biaxis {
			font-family:Helvetica,sans-serif;
			font-size:9px;
			fill:#007F00;
		}
		.bityp {
			font-family:Helvetica,sans-serif;
			font-size:9px;
			fill:#FF7F00;
		}
	</style>
	<line id="lnk2785" x1="185" y1="231" x2="265" y2="103" class="link"/>
	<line id="lnk2786" x1="185" y1="231" x2="265" y2="376" class="link"/>
	<line id="lnk2787" x1="435" y1="376" x2="515" y2="344" class="link"/>
	<g id="box3994" transform="translate(15,116)" onmousedown="handleBoxMdn(event,3994)">
		<path d="M0.0,0L170,0L170,22L0.0,22L0.0,0z" class="box"/>
		<path d="M150.5,3L165.5,3M150.5,18L165.5,18M154.5,6L160.5,6L160.5,12L154.5,12L154.5,6M162.5,9L165.5,9L165.5,15L159.5,15L159.5,14" class="icon" onclick="handleRowClick(event,1,3994,1)"/>
		<path d="M3.5,3L18.5,3M3.5,18L18.5,18M7.5,6L13.5,6L13.5,12L7.5,12L7.5,6M15.5,9L18.5,9L18.5,15L12.5,15L12.5,14M4.5,6L5.5,6M4.5,9L5.5,9M4.5,12L5.5,12M4.5,15L10.5,15" class="icon" onclick="handleRowClick(event,1,3994,2)"/>
		<text xml:space="preserve">
			<tspan x="85" y="14" class="bihdr">ImeIMProject</tspan>
		</text>
		<path d="M0.0,22L170,22L170,44L0.0,44L0.0,22z" class="box"/>
		<text xml:space="preserve">
			<tspan x="4" y="36" class="bi">* ref</tspan>
		</text>
		<path d="M0.0,44L170,44L170,66L0.0,66L0.0,44z" class="box" onmousemove="handleRowMov(event,3,3994)" onmouseout="handleRowMou(3,3994)"/>
		<text xml:space="preserve">
			<tspan x="4" y="58" class="bitbl">* grp</tspan>
		</text>
		<path d="M0.0,66L170,66L170,88L0.0,88L0.0,66z" class="box" onmousemove="handleRowMov(event,4,3994)" onmouseout="handleRowMou(4,3994)"/>
		<text xml:space="preserve">
			<tspan x="4" y="80" class="bitbl">* own</tspan>
		</text>
		<path d="M0.0,88L170,88L170,110L0.0,110L0.0,88z" class="box" onmousemove="handleRowMov(event,5,3994)" onmouseout="handleRowMou(5,3994)"/>
		<text xml:space="preserve">
			<tspan x="4" y="102" class="bitbl">* refWdbeMVersion</tspan>
		</text>
		<path d="M0.0,110L170,110L170,132L0.0,132L0.0,110z" class="box" onmousemove="handleRowMov(event,6,3994)" onmouseout="handleRowMou(6,3994)"/>
		<text xml:space="preserve">
			<tspan x="4" y="124" class="bifil">* Short (sho)</tspan>
		</text>
		<path d="M0.0,132L170,132L170,154L0.0,154L0.0,132z" class="box" onmousemove="handleRowMov(event,7,3994)" onmouseout="handleRowMou(7,3994)"/>
		<text xml:space="preserve">
			<tspan x="4" y="146" class="bifil">* Title (tit)</tspan>
		</text>
		<path d="M0.0,154L170,154L170,176L0.0,176L0.0,154z" class="box" onmousemove="handleRowMov(event,8,3994)" onmouseout="handleRowMou(8,3994)"/>
		<text xml:space="preserve">
			<tspan x="4" y="168" class="bifil">* Easy (esy)</tspan>
		</text>
		<path d="M0.0,176L170,176L170,198L0.0,198L0.0,176z" class="box" onmousemove="handleRowMov(event,9,3994)" onmouseout="handleRowMou(9,3994)"/>
		<text xml:space="preserve">
			<tspan x="4" y="190" class="bifil">* Giturl (grl)</tspan>
		</text>
		<path d="M0.0,198L170,198L170,220L0.0,220L0.0,198z" class="box" onmousemove="handleRowMov(event,10,3994)" onmouseout="handleRowMou(10,3994)"/>
		<text xml:space="preserve">
			<tspan x="4" y="212" class="bifil">* Comment (cmt)</tspan>
		</text>
	</g>
	<g id="box3995" transform="translate(265,15)" onmousedown="handleBoxMdn(event,3995)">
		<path d="M0.0,0L170,0L170,22L0.0,22L0.0,0z" class="box"/>
		<path d="M150.5,3L165.5,3M150.5,18L165.5,18M154.5,6L160.5,6L160.5,12L154.5,12L154.5,6M162.5,9L165.5,9L165.5,15L159.5,15L159.5,14" class="icon" onclick="handleRowClick(event,11,3995,1)"/>
		<text xml:space="preserve">
			<tspan x="85" y="14" class="bihdr">ImeIRMPersonMProject</tspan>
		</text>
		<path d="M0.0,22L170,22L170,44L0.0,44L0.0,22z" class="box"/>
		<text xml:space="preserve">
			<tspan x="4" y="36" class="bi">* ref</tspan>
		</text>
		<path d="M0.0,44L170,44L170,66L0.0,66L0.0,44z" class="box"/>
		<text xml:space="preserve">
			<tspan x="4" y="58" class="bi">* x1Startd</tspan>
		</text>
		<path d="M0.0,66L170,66L170,88L0.0,88L0.0,66z" class="box"/>
		<text xml:space="preserve">
			<tspan x="4" y="80" class="bi">* x1Stopd</tspan>
		</text>
		<path d="M0.0,88L170,88L170,122L0.0,122L0.0,88z" class="box" onmousemove="handleRowMov(event,15,3995)" onmouseout="handleRowMou(15,3995)"/>
		<text xml:space="preserve">
			<tspan x="4" y="102" class="bifil">hintRefWdbeMPerson (prs)</tspan>
			<tspan x="4" y="114" class="bi">* refWdbeMPerson</tspan>
		</text>
		<path d="M0.0,122L170,122L170,144L0.0,144L0.0,122z" class="box" onmousemove="handleRowMov(event,16,3995)" onmouseout="handleRowMou(16,3995)"/>
		<text xml:space="preserve">
			<tspan x="4" y="136" class="bitbl">* refWdbeMProject</tspan>
		</text>
		<path d="M0.0,144L170,144L170,166L0.0,166L0.0,144z" class="box" onmousemove="handleRowMov(event,17,3995)" onmouseout="handleRowMou(17,3995)"/>
		<text xml:space="preserve">
			<tspan x="4" y="158" class="bifil">* srefKFunction (fct)</tspan>
		</text>
	</g>
	<g id="box3996" transform="translate(265,211)" onmousedown="handleBoxMdn(event,3996)">
		<path d="M0.0,0L170,0L170,22L0.0,22L0.0,0z" class="box"/>
		<path d="M150.5,3L165.5,3M150.5,18L165.5,18M154.5,6L160.5,6L160.5,12L154.5,12L154.5,6M162.5,9L165.5,9L165.5,15L159.5,15L159.5,14" class="icon" onclick="handleRowClick(event,18,3996,1)"/>
		<path d="M3.5,3L18.5,3M3.5,18L18.5,18M7.5,6L13.5,6L13.5,12L7.5,12L7.5,6M15.5,9L18.5,9L18.5,15L12.5,15L12.5,14M4.5,6L5.5,6M4.5,9L5.5,9M4.5,12L5.5,12M4.5,15L10.5,15" class="icon" onclick="handleRowClick(event,18,3996,2)"/>
		<text xml:space="preserve">
			<tspan x="85" y="14" class="bihdr">ImeIMVersion</tspan>
		</text>
		<path d="M0.0,22L170,22L170,44L0.0,44L0.0,22z" class="box"/>
		<text xml:space="preserve">
			<tspan x="4" y="36" class="bi">* ref</tspan>
		</text>
		<path d="M0.0,44L170,44L170,66L0.0,66L0.0,44z" class="box" onmousemove="handleRowMov(event,20,3996)" onmouseout="handleRowMou(20,3996)"/>
		<text xml:space="preserve">
			<tspan x="4" y="58" class="bitbl">* grp</tspan>
		</text>
		<path d="M0.0,66L170,66L170,88L0.0,88L0.0,66z" class="box" onmousemove="handleRowMov(event,21,3996)" onmouseout="handleRowMou(21,3996)"/>
		<text xml:space="preserve">
			<tspan x="4" y="80" class="bitbl">* own</tspan>
		</text>
		<path d="M0.0,88L170,88L170,110L0.0,110L0.0,88z" class="box" onmousemove="handleRowMov(event,22,3996)" onmouseout="handleRowMou(22,3996)"/>
		<text xml:space="preserve">
			<tspan x="4" y="102" class="bitbl">* prjRefWdbeMProject</tspan>
		</text>
		<path d="M0.0,110L170,110L170,132L0.0,132L0.0,110z" class="box" onmousemove="handleRowMov(event,23,3996)" onmouseout="handleRowMou(23,3996)"/>
		<text xml:space="preserve">
			<tspan x="4" y="124" class="bitbl">* prjNum</tspan>
		</text>
		<path d="M0.0,132L170,132L170,154L0.0,154L0.0,132z" class="box"/>
		<text xml:space="preserve">
			<tspan x="4" y="146" class="bi">* bvrRefWdbeMVersion</tspan>
		</text>
		<path d="M0.0,154L170,154L170,176L0.0,176L0.0,154z" class="box" onmousemove="handleRowMov(event,25,3996)" onmouseout="handleRowMou(25,3996)"/>
		<text xml:space="preserve">
			<tspan x="4" y="168" class="bifil">* Major (maj)</tspan>
		</text>
		<path d="M0.0,176L170,176L170,198L0.0,198L0.0,176z" class="box" onmousemove="handleRowMov(event,26,3996)" onmouseout="handleRowMou(26,3996)"/>
		<text xml:space="preserve">
			<tspan x="4" y="190" class="bifil">* Minor (min)</tspan>
		</text>
		<path d="M0.0,198L170,198L170,220L0.0,220L0.0,198z" class="box" onmousemove="handleRowMov(event,27,3996)" onmouseout="handleRowMou(27,3996)"/>
		<text xml:space="preserve">
			<tspan x="4" y="212" class="bifil">* Sub (sub)</tspan>
		</text>
		<path d="M0.0,220L170,220L170,242L0.0,242L0.0,220z" class="box" onmousemove="handleRowMov(event,28,3996)" onmouseout="handleRowMou(28,3996)"/>
		<text xml:space="preserve">
			<tspan x="4" y="234" class="bitbl">* refJState</tspan>
		</text>
		<path d="M0.0,242L170,242L170,276L0.0,276L0.0,242z" class="box" onmousemove="handleRowMov(event,29,3996)" onmouseout="handleRowMou(29,3996)"/>
		<text xml:space="preserve">
			<tspan x="4" y="256" class="bifil">srefIxVState (ste)</tspan>
			<tspan x="4" y="268" class="bi">* ixVState</tspan>
		</text>
		<path d="M0.0,276L170,276L170,298L0.0,298L0.0,276z" class="box" onmousemove="handleRowMov(event,30,3996)" onmouseout="handleRowMou(30,3996)"/>
		<text xml:space="preserve">
			<tspan x="4" y="290" class="bifil">* About (abt)</tspan>
		</text>
		<path d="M0.0,298L170,298L170,320L0.0,320L0.0,298z" class="box" onmousemove="handleRowMov(event,31,3996)" onmouseout="handleRowMou(31,3996)"/>
		<text xml:space="preserve">
			<tspan x="4" y="312" class="bifil">* Comment (cmt)</tspan>
		</text>
	</g>
	<g id="box3997" transform="translate(515,278)" onmousedown="handleBoxMdn(event,3997)">
		<path d="M0.0,0L170,0L170,22L0.0,22L0.0,0z" class="box"/>
		<path d="M150.5,3L165.5,3M150.5,18L165.5,18M154.5,6L160.5,6L160.5,12L154.5,12L154.5,6M162.5,9L165.5,9L165.5,15L159.5,15L159.5,14" class="icon" onclick="handleRowClick(event,32,3997,1)"/>
		<text xml:space="preserve">
			<tspan x="85" y="14" class="bihdr">ImeIJMVersionState</tspan>
		</text>
		<path d="M0.0,22L170,22L170,44L0.0,44L0.0,22z" class="box"/>
		<text xml:space="preserve">
			<tspan x="4" y="36" class="bi">* ref</tspan>
		</text>
		<path d="M0.0,44L170,44L170,66L0.0,66L0.0,44z" class="box" onmousemove="handleRowMov(event,34,3997)" onmouseout="handleRowMou(34,3997)"/>
		<text xml:space="preserve">
			<tspan x="4" y="58" class="bitbl">* refWdbeMVersion</tspan>
		</text>
		<path d="M0.0,66L170,66L170,88L0.0,88L0.0,66z" class="box" onmousemove="handleRowMov(event,35,3997)" onmouseout="handleRowMou(35,3997)"/>
		<text xml:space="preserve">
			<tspan x="4" y="80" class="bitbl">* x1Start</tspan>
		</text>
		<path d="M0.0,88L170,88L170,122L0.0,122L0.0,88z" class="box" onmousemove="handleRowMov(event,36,3997)" onmouseout="handleRowMou(36,3997)"/>
		<text xml:space="preserve">
			<tspan x="4" y="102" class="bifil">srefIxVState (ste)</tspan>
			<tspan x="4" y="114" class="bi">* ixVState</tspan>
		</text>
	</g>
</svg>
