<?xml version="1.0"?>
<svg xmlns:xlink="http://www.w3.org/1999/xlink" xmlns:ev="http://www.w3.org/2001/xml-events" xmlns="http://www.w3.org/2000/svg" height="6400" viewBox="0 0 1600 6400" width="1600">
	<script>
		function handleKdn(event) {return parent.window.handleKdn(event)};

		function handleBoxMdn(event,jnum) {return parent.window.handleBoxMdn(document,event,jnum)};
		function handleBoxMove(event,jnum) {return parent.window.handleBoxMove(document,event,jnum)};
		function handleBoxMup(event,jnum) {return parent.window.handleBoxMup(document,jnum)};

		function handleRowMov(event,jnum,jnumBox) {return parent.window.handleRowMov(event,jnum,jnumBox)};
		function handleRowMou(jnum,jnumBox) {return parent.window.handleRowMou(jnum,jnumBox)};
		function handleRowClick(event,jnum,jnumBox,num) {return parent.window.handleRowClick(event,jnum,jnumBox,num)};

		document.onkeydown = handleKdn;
	</script>
	<style>
		<!-- require inline CSS for standalone view and export to .pdf -->
		g {
			cursor:pointer;
		}
		.box {
			stroke:#000000;
			fill:#FFFFFF;
			stroke-width:1.333px;
			filter:drop-shadow(5px 5px 4px #3F3F3F);
		}
		.boxlite {
			stroke:#7F7F7F;
			fill:#FFFFFF;
			stroke-width:1.333px;
			filter:drop-shadow(5px 5px 4px #BFBFBF);
		}
		.link {
			stroke:#000000;
			stroke-width:0.5px;
		}
		.linklite {
			stroke:#7F7F7F;
			stroke-width:0.5px;
		}
		.icon {
			stroke:#000000;
			fill:#FFFFFF;
			stroke-width:1px;
			cursor:pointer;
		}
		.icon:hover {
			stroke:#FF7F00;
		}
		.bihdr {
			font-family:Helvetica,sans-serif;
			font-size:11px;
			font-weight:bold;
			fill:#000000;
			text-anchor:middle;
		}
		.bihdrlite {
			font-family:Helvetica,sans-serif;
			font-size:11px;
			font-weight:bold;
			fill:#7F7F7F;
			text-anchor:middle;
		}
		.bi {
			font-family:Helvetica,sans-serif;
			font-size:9px;
			fill:#000000;
		}
		.bifil {
			font-family:Helvetica,sans-serif;
			font-size:9px;
			fill:#007FFF;
		}
		.bitbl {
			font-family:Helvetica,sans-serif;
			font-size:9px;
			fill:#0000FF;
		}
		.biretr {
			font-family:Helvetica,sans-serif;
			font-size:9px;
			fill:#FF7F00;
		}
		.bivec {
			font-family:Helvetica,sans-serif;
			font-size:9px;
			fill:#7F7F7F;
		}
		.biaffil {
			font-family:Helvetica,sans-serif;
			font-size:9px;
			fill:#0000FF;
		}
		.bipref {
			font-family:Helvetica,sans-serif;
			font-size:9px;
			fill:#007FFF;
		}
		.biinc {
			font-family:Helvetica,sans-serif;
			font-size:9px;
			fill:#00FFFF;
		}
		.bijovr {
			font-family:Helvetica,sans-serif;
			font-size:9px;
			fill:#007F00;
		}
		.biaxis {
			font-family:Helvetica,sans-serif;
			font-size:9px;
			fill:#007F00;
		}
		.bityp {
			font-family:Helvetica,sans-serif;
			font-size:9px;
			fill:#FF7F00;
		}
	</style>
	<line id="lnk2659" x1="185" y1="550" x2="265" y2="103" class="link"/>
	<line id="lnk2660" x1="185" y1="550" x2="265" y2="460" class="link"/>
	<line id="lnk2661" x1="185" y1="550" x2="265" y2="853" class="link"/>
	<line id="lnk2662" x1="185" y1="550" x2="265" y2="1176" class="link"/>
	<line id="lnk2663" x1="435" y1="103" x2="515" y2="93" class="link"/>
	<line id="lnk2664" x1="435" y1="460" x2="515" y2="343" class="link"/>
	<line id="lnk2665" x1="435" y1="460" x2="515" y2="623" class="link"/>
	<line id="lnk2666" x1="435" y1="853" x2="515" y2="875" class="link"/>
	<line id="lnk2667" x1="435" y1="1176" x2="515" y2="1164" class="link"/>
	<line id="lnk2668" x1="685" y1="1164" x2="765" y2="414" class="link"/>
	<line id="lnk2669" x1="685" y1="1164" x2="765" y2="831" class="link"/>
	<line id="lnk2670" x1="685" y1="1164" x2="765" y2="1073" class="link"/>
	<line id="lnk2671" x1="685" y1="1164" x2="765" y2="1268" class="link"/>
	<line id="lnk2672" x1="935" y1="414" x2="1015" y2="416" class="link"/>
	<line id="lnk2673" x1="935" y1="831" x2="1015" y2="691" class="link"/>
	<line id="lnk2674" x1="935" y1="831" x2="1015" y2="973" class="link"/>
	<line id="lnk2675" x1="935" y1="1268" x2="1015" y2="1262" class="link"/>
	<g id="box3849" transform="translate(15,391)" onmousedown="handleBoxMdn(event,3849)">
		<path d="M0.0,0L170,0L170,22L0.0,22L0.0,0z" class="box"/>
		<path d="M150.5,3L165.5,3M150.5,18L165.5,18M154.5,6L160.5,6L160.5,12L154.5,12L154.5,6M162.5,9L165.5,9L165.5,15L159.5,15L159.5,14" class="icon" onclick="handleRowClick(event,1,3849,1)"/>
		<path d="M3.5,3L18.5,3M3.5,18L18.5,18M7.5,6L13.5,6L13.5,12L7.5,12L7.5,6M15.5,9L18.5,9L18.5,15L12.5,15L12.5,14M4.5,6L5.5,6M4.5,9L5.5,9M4.5,12L5.5,12M4.5,15L10.5,15" class="icon" onclick="handleRowClick(event,1,3849,2)"/>
		<text xml:space="preserve">
			<tspan x="85" y="14" class="bihdr">ImeIMUnit</tspan>
		</text>
		<path d="M0.0,22L170,22L170,44L0.0,44L0.0,22z" class="box"/>
		<text xml:space="preserve">
			<tspan x="4" y="36" class="bi">* ref</tspan>
		</text>
		<path d="M0.0,44L170,44L170,66L0.0,66L0.0,44z" class="box"/>
		<text xml:space="preserve">
			<tspan x="4" y="58" class="bi">* ixVBasetype</tspan>
		</text>
		<path d="M0.0,66L170,66L170,88L0.0,88L0.0,66z" class="box" onmousemove="handleRowMov(event,4,3849)" onmouseout="handleRowMou(4,3849)"/>
		<text xml:space="preserve">
			<tspan x="4" y="80" class="bitbl">* refIxVTbl</tspan>
		</text>
		<path d="M0.0,88L170,88L170,110L0.0,110L0.0,88z" class="box" onmousemove="handleRowMov(event,5,3849)" onmouseout="handleRowMou(5,3849)"/>
		<text xml:space="preserve">
			<tspan x="4" y="102" class="bitbl">* refUref</tspan>
		</text>
		<path d="M0.0,110L170,110L170,132L0.0,132L0.0,110z" class="box"/>
		<text xml:space="preserve">
			<tspan x="4" y="124" class="bi">* silRefWdbeMUnit</tspan>
		</text>
		<path d="M0.0,132L170,132L170,154L0.0,154L0.0,132z" class="box"/>
		<text xml:space="preserve">
			<tspan x="4" y="146" class="bi">* refWdbeMModule</tspan>
		</text>
		<path d="M0.0,154L170,154L170,176L0.0,176L0.0,154z" class="box" onmousemove="handleRowMov(event,8,3849)" onmouseout="handleRowMou(8,3849)"/>
		<text xml:space="preserve">
			<tspan x="4" y="168" class="biretr">* sref (srf)</tspan>
		</text>
		<path d="M0.0,176L170,176L170,198L0.0,198L0.0,176z" class="box"/>
		<text xml:space="preserve">
			<tspan x="4" y="190" class="bi">* Title</tspan>
		</text>
		<path d="M0.0,198L170,198L170,220L0.0,220L0.0,198z" class="box"/>
		<text xml:space="preserve">
			<tspan x="4" y="212" class="bi">* Fullsref</tspan>
		</text>
		<path d="M0.0,220L170,220L170,242L0.0,242L0.0,220z" class="box"/>
		<text xml:space="preserve">
			<tspan x="4" y="234" class="bi">* srefKPackage</tspan>
		</text>
		<path d="M0.0,242L170,242L170,264L0.0,264L0.0,242z" class="box"/>
		<text xml:space="preserve">
			<tspan x="4" y="256" class="bi">* Easy</tspan>
		</text>
		<path d="M0.0,264L170,264L170,286L0.0,286L0.0,264z" class="box"/>
		<text xml:space="preserve">
			<tspan x="4" y="278" class="bi">* srefKToolch</tspan>
		</text>
		<path d="M0.0,286L170,286L170,308L0.0,308L0.0,286z" class="box"/>
		<text xml:space="preserve">
			<tspan x="4" y="300" class="bi">* Comment</tspan>
		</text>
	</g>
	<g id="box3850" transform="translate(265,15)" onmousedown="handleBoxMdn(event,3850)">
		<path d="M0.0,0L170,0L170,22L0.0,22L0.0,0z" class="box"/>
		<path d="M150.5,3L165.5,3M150.5,18L165.5,18M154.5,6L160.5,6L160.5,12L154.5,12L154.5,6M162.5,9L165.5,9L165.5,15L159.5,15L159.5,14" class="icon" onclick="handleRowClick(event,15,3850,1)"/>
		<path d="M3.5,3L18.5,3M3.5,18L18.5,18M7.5,6L13.5,6L13.5,12L7.5,12L7.5,6M15.5,9L18.5,9L18.5,15L12.5,15L12.5,14M4.5,6L5.5,6M4.5,9L5.5,9M4.5,12L5.5,12M4.5,15L10.5,15" class="icon" onclick="handleRowClick(event,15,3850,2)"/>
		<text xml:space="preserve">
			<tspan x="85" y="14" class="bihdr">ImeIMVector1</tspan>
		</text>
		<path d="M0.0,22L170,22L170,44L0.0,44L0.0,22z" class="box"/>
		<text xml:space="preserve">
			<tspan x="4" y="36" class="bi">* ref</tspan>
		</text>
		<path d="M0.0,44L170,44L170,78L0.0,78L0.0,44z" class="box" onmousemove="handleRowMov(event,17,3850)" onmouseout="handleRowMou(17,3850)"/>
		<text xml:space="preserve">
			<tspan x="4" y="58" class="bifil">srefIxVBasetype (typ)</tspan>
			<tspan x="4" y="70" class="bi">* ixVBasetype</tspan>
		</text>
		<path d="M0.0,78L170,78L170,100L0.0,100L0.0,78z" class="box" onmousemove="handleRowMov(event,18,3850)" onmouseout="handleRowMou(18,3850)"/>
		<text xml:space="preserve">
			<tspan x="4" y="92" class="bitbl">* hkIxVTbl</tspan>
		</text>
		<path d="M0.0,100L170,100L170,122L0.0,122L0.0,100z" class="box" onmousemove="handleRowMov(event,19,3850)" onmouseout="handleRowMou(19,3850)"/>
		<text xml:space="preserve">
			<tspan x="4" y="114" class="bitbl">* hkUref</tspan>
		</text>
		<path d="M0.0,122L170,122L170,144L0.0,144L0.0,122z" class="box" onmousemove="handleRowMov(event,20,3850)" onmouseout="handleRowMou(20,3850)"/>
		<text xml:space="preserve">
			<tspan x="4" y="136" class="bifil">* sref (srf)</tspan>
		</text>
		<path d="M0.0,144L170,144L170,166L0.0,166L0.0,144z" class="box" onmousemove="handleRowMov(event,21,3850)" onmouseout="handleRowMou(21,3850)"/>
		<text xml:space="preserve">
			<tspan x="4" y="158" class="bifil">* srefsKOption (opt)</tspan>
		</text>
	</g>
	<g id="box3851" transform="translate(515,11)" onmousedown="handleBoxMdn(event,3851)">
		<path d="M0.0,0L170,0L170,22L0.0,22L0.0,0z" class="box"/>
		<path d="M150.5,3L165.5,3M150.5,18L165.5,18M154.5,6L160.5,6L160.5,12L154.5,12L154.5,6M162.5,9L165.5,9L165.5,15L159.5,15L159.5,14" class="icon" onclick="handleRowClick(event,22,3851,1)"/>
		<text xml:space="preserve">
			<tspan x="85" y="14" class="bihdr">ImeIMVectoritem1</tspan>
		</text>
		<path d="M0.0,22L170,22L170,44L0.0,44L0.0,22z" class="box"/>
		<text xml:space="preserve">
			<tspan x="4" y="36" class="bi">* ref</tspan>
		</text>
		<path d="M0.0,44L170,44L170,66L0.0,66L0.0,44z" class="box" onmousemove="handleRowMov(event,24,3851)" onmouseout="handleRowMou(24,3851)"/>
		<text xml:space="preserve">
			<tspan x="4" y="58" class="bitbl">* vecRefWdbeMVector</tspan>
		</text>
		<path d="M0.0,66L170,66L170,88L0.0,88L0.0,66z" class="box" onmousemove="handleRowMov(event,25,3851)" onmouseout="handleRowMou(25,3851)"/>
		<text xml:space="preserve">
			<tspan x="4" y="80" class="bitbl">* vecNum</tspan>
		</text>
		<path d="M0.0,88L170,88L170,110L0.0,110L0.0,88z" class="box" onmousemove="handleRowMov(event,26,3851)" onmouseout="handleRowMou(26,3851)"/>
		<text xml:space="preserve">
			<tspan x="4" y="102" class="bifil">* sref (srf)</tspan>
		</text>
		<path d="M0.0,110L170,110L170,132L0.0,132L0.0,110z" class="box" onmousemove="handleRowMov(event,27,3851)" onmouseout="handleRowMou(27,3851)"/>
		<text xml:space="preserve">
			<tspan x="4" y="124" class="bifil">* Title (tit)</tspan>
		</text>
		<path d="M0.0,132L170,132L170,154L0.0,154L0.0,132z" class="box" onmousemove="handleRowMov(event,28,3851)" onmouseout="handleRowMou(28,3851)"/>
		<text xml:space="preserve">
			<tspan x="4" y="146" class="bifil">* Comment (cmt)</tspan>
		</text>
	</g>
	<g id="box3852" transform="translate(265,317)" onmousedown="handleBoxMdn(event,3852)">
		<path d="M0.0,0L170,0L170,22L0.0,22L0.0,0z" class="box"/>
		<path d="M150.5,3L165.5,3M150.5,18L165.5,18M154.5,6L160.5,6L160.5,12L154.5,12L154.5,6M162.5,9L165.5,9L165.5,15L159.5,15L159.5,14" class="icon" onclick="handleRowClick(event,29,3852,1)"/>
		<path d="M3.5,3L18.5,3M3.5,18L18.5,18M7.5,6L13.5,6L13.5,12L7.5,12L7.5,6M15.5,9L18.5,9L18.5,15L12.5,15L12.5,14M4.5,6L5.5,6M4.5,9L5.5,9M4.5,12L5.5,12M4.5,15L10.5,15" class="icon" onclick="handleRowClick(event,29,3852,2)"/>
		<text xml:space="preserve">
			<tspan x="85" y="14" class="bihdr">ImeIMCommand1</tspan>
		</text>
		<path d="M0.0,22L170,22L170,44L0.0,44L0.0,22z" class="box"/>
		<text xml:space="preserve">
			<tspan x="4" y="36" class="bi">* ref</tspan>
		</text>
		<path d="M0.0,44L170,44L170,66L0.0,66L0.0,44z" class="box" onmousemove="handleRowMov(event,31,3852)" onmouseout="handleRowMou(31,3852)"/>
		<text xml:space="preserve">
			<tspan x="4" y="58" class="bitbl">* refIxVTbl</tspan>
		</text>
		<path d="M0.0,66L170,66L170,88L0.0,88L0.0,66z" class="box" onmousemove="handleRowMov(event,32,3852)" onmouseout="handleRowMou(32,3852)"/>
		<text xml:space="preserve">
			<tspan x="4" y="80" class="bitbl">* refUref</tspan>
		</text>
		<path d="M0.0,88L170,88L170,110L0.0,110L0.0,88z" class="box" onmousemove="handleRowMov(event,33,3852)" onmouseout="handleRowMou(33,3852)"/>
		<text xml:space="preserve">
			<tspan x="4" y="102" class="bifil">* refNum (ren)</tspan>
		</text>
		<path d="M0.0,110L170,110L170,132L0.0,132L0.0,110z" class="box" onmousemove="handleRowMov(event,34,3852)" onmouseout="handleRowMou(34,3852)"/>
		<text xml:space="preserve">
			<tspan x="4" y="124" class="bifil">* sref (srf)</tspan>
		</text>
		<path d="M0.0,132L170,132L170,154L0.0,154L0.0,132z" class="box" onmousemove="handleRowMov(event,35,3852)" onmouseout="handleRowMou(35,3852)"/>
		<text xml:space="preserve">
			<tspan x="4" y="146" class="bitbl">* Fullsref</tspan>
		</text>
		<path d="M0.0,154L170,154L170,188L0.0,188L0.0,154z" class="box" onmousemove="handleRowMov(event,36,3852)" onmouseout="handleRowMou(36,3852)"/>
		<text xml:space="preserve">
			<tspan x="4" y="168" class="bifil">srefIxVRettype (rty)</tspan>
			<tspan x="4" y="180" class="bi">* ixVRettype</tspan>
		</text>
		<path d="M0.0,188L170,188L170,210L0.0,210L0.0,188z" class="box"/>
		<text xml:space="preserve">
			<tspan x="4" y="202" class="bi">* ivrRefWdbeMSignal</tspan>
		</text>
		<path d="M0.0,210L170,210L170,232L0.0,232L0.0,210z" class="box"/>
		<text xml:space="preserve">
			<tspan x="4" y="224" class="bi">* rvrRefWdbeMSignal</tspan>
		</text>
		<path d="M0.0,232L170,232L170,254L0.0,254L0.0,232z" class="box"/>
		<text xml:space="preserve">
			<tspan x="4" y="246" class="bi">* rerRefWdbeMSignal</tspan>
		</text>
		<path d="M0.0,254L170,254L170,276L0.0,276L0.0,254z" class="box" onmousemove="handleRowMov(event,40,3852)" onmouseout="handleRowMou(40,3852)"/>
		<text xml:space="preserve">
			<tspan x="4" y="268" class="bifil">* Comment (cmt)</tspan>
		</text>
	</g>
	<g id="box3853" transform="translate(515,199)" onmousedown="handleBoxMdn(event,3853)">
		<path d="M0.0,0L170,0L170,22L0.0,22L0.0,0z" class="box"/>
		<path d="M150.5,3L165.5,3M150.5,18L165.5,18M154.5,6L160.5,6L160.5,12L154.5,12L154.5,6M162.5,9L165.5,9L165.5,15L159.5,15L159.5,14" class="icon" onclick="handleRowClick(event,41,3853,1)"/>
		<text xml:space="preserve">
			<tspan x="85" y="14" class="bihdr">ImeIAMCommandInvpar1</tspan>
		</text>
		<path d="M0.0,22L170,22L170,44L0.0,44L0.0,22z" class="box"/>
		<text xml:space="preserve">
			<tspan x="4" y="36" class="bi">* ref</tspan>
		</text>
		<path d="M0.0,44L170,44L170,66L0.0,66L0.0,44z" class="box" onmousemove="handleRowMov(event,43,3853)" onmouseout="handleRowMou(43,3853)"/>
		<text xml:space="preserve">
			<tspan x="4" y="58" class="bitbl">* cmdRefWdbeMCommand</tspan>
		</text>
		<path d="M0.0,66L170,66L170,88L0.0,88L0.0,66z" class="box" onmousemove="handleRowMov(event,44,3853)" onmouseout="handleRowMou(44,3853)"/>
		<text xml:space="preserve">
			<tspan x="4" y="80" class="bitbl">* cmdNum</tspan>
		</text>
		<path d="M0.0,88L170,88L170,110L0.0,110L0.0,88z" class="box" onmousemove="handleRowMov(event,45,3853)" onmouseout="handleRowMou(45,3853)"/>
		<text xml:space="preserve">
			<tspan x="4" y="102" class="bifil">* sref (srf)</tspan>
		</text>
		<path d="M0.0,110L170,110L170,144L0.0,144L0.0,110z" class="box" onmousemove="handleRowMov(event,46,3853)" onmouseout="handleRowMou(46,3853)"/>
		<text xml:space="preserve">
			<tspan x="4" y="124" class="bifil">srefIxWdbeVPartype (pty)</tspan>
			<tspan x="4" y="136" class="bi">* ixWdbeVPartype</tspan>
		</text>
		<path d="M0.0,144L170,144L170,178L0.0,178L0.0,144z" class="box" onmousemove="handleRowMov(event,47,3853)" onmouseout="handleRowMou(47,3853)"/>
		<text xml:space="preserve">
			<tspan x="4" y="158" class="bifil">srefRefWdbeMVector (vec)</tspan>
			<tspan x="4" y="170" class="bi">* refWdbeMVector</tspan>
		</text>
		<path d="M0.0,178L170,178L170,200L0.0,200L0.0,178z" class="box" onmousemove="handleRowMov(event,48,3853)" onmouseout="handleRowMou(48,3853)"/>
		<text xml:space="preserve">
			<tspan x="4" y="192" class="bifil">* Length (len)</tspan>
		</text>
		<path d="M0.0,200L170,200L170,222L0.0,222L0.0,200z" class="box" onmousemove="handleRowMov(event,49,3853)" onmouseout="handleRowMou(49,3853)"/>
		<text xml:space="preserve">
			<tspan x="4" y="214" class="bifil">* Defval (dfv)</tspan>
		</text>
		<path d="M0.0,222L170,222L170,256L0.0,256L0.0,222z" class="box" onmousemove="handleRowMov(event,50,3853)" onmouseout="handleRowMou(50,3853)"/>
		<text xml:space="preserve">
			<tspan x="4" y="236" class="bifil">srefRefWdbeMVectoritem (vit)</tspan>
			<tspan x="4" y="248" class="bi">* refWdbeMVectoritem</tspan>
		</text>
		<path d="M0.0,256L170,256L170,278L0.0,278L0.0,256z" class="box" onmousemove="handleRowMov(event,51,3853)" onmouseout="handleRowMou(51,3853)"/>
		<text xml:space="preserve">
			<tspan x="4" y="270" class="bifil">* Comment (cmt)</tspan>
		</text>
	</g>
	<g id="box3854" transform="translate(515,507)" onmousedown="handleBoxMdn(event,3854)">
		<path d="M0.0,0L170,0L170,22L0.0,22L0.0,0z" class="box"/>
		<path d="M150.5,3L165.5,3M150.5,18L165.5,18M154.5,6L160.5,6L160.5,12L154.5,12L154.5,6M162.5,9L165.5,9L165.5,15L159.5,15L159.5,14" class="icon" onclick="handleRowClick(event,52,3854,1)"/>
		<text xml:space="preserve">
			<tspan x="85" y="14" class="bihdr">ImeIAMCommandRetpar1</tspan>
		</text>
		<path d="M0.0,22L170,22L170,44L0.0,44L0.0,22z" class="box"/>
		<text xml:space="preserve">
			<tspan x="4" y="36" class="bi">* ref</tspan>
		</text>
		<path d="M0.0,44L170,44L170,66L0.0,66L0.0,44z" class="box" onmousemove="handleRowMov(event,54,3854)" onmouseout="handleRowMou(54,3854)"/>
		<text xml:space="preserve">
			<tspan x="4" y="58" class="bitbl">* cmdRefWdbeMCommand</tspan>
		</text>
		<path d="M0.0,66L170,66L170,88L0.0,88L0.0,66z" class="box" onmousemove="handleRowMov(event,55,3854)" onmouseout="handleRowMou(55,3854)"/>
		<text xml:space="preserve">
			<tspan x="4" y="80" class="bitbl">* cmdNum</tspan>
		</text>
		<path d="M0.0,88L170,88L170,110L0.0,110L0.0,88z" class="box" onmousemove="handleRowMov(event,56,3854)" onmouseout="handleRowMou(56,3854)"/>
		<text xml:space="preserve">
			<tspan x="4" y="102" class="bifil">* sref (srf)</tspan>
		</text>
		<path d="M0.0,110L170,110L170,144L0.0,144L0.0,110z" class="box" onmousemove="handleRowMov(event,57,3854)" onmouseout="handleRowMou(57,3854)"/>
		<text xml:space="preserve">
			<tspan x="4" y="124" class="bifil">srefIxWdbeVPartype (pty)</tspan>
			<tspan x="4" y="136" class="bi">* ixWdbeVPartype</tspan>
		</text>
		<path d="M0.0,144L170,144L170,178L0.0,178L0.0,144z" class="box" onmousemove="handleRowMov(event,58,3854)" onmouseout="handleRowMou(58,3854)"/>
		<text xml:space="preserve">
			<tspan x="4" y="158" class="bifil">srefRefWdbeMVector (vec)</tspan>
			<tspan x="4" y="170" class="bi">* refWdbeMVector</tspan>
		</text>
		<path d="M0.0,178L170,178L170,200L0.0,200L0.0,178z" class="box" onmousemove="handleRowMov(event,59,3854)" onmouseout="handleRowMou(59,3854)"/>
		<text xml:space="preserve">
			<tspan x="4" y="192" class="bifil">* Length (len)</tspan>
		</text>
		<path d="M0.0,200L170,200L170,222L0.0,222L0.0,200z" class="box" onmousemove="handleRowMov(event,60,3854)" onmouseout="handleRowMou(60,3854)"/>
		<text xml:space="preserve">
			<tspan x="4" y="214" class="bifil">* Comment (cmt)</tspan>
		</text>
	</g>
	<g id="box3855" transform="translate(265,749)" onmousedown="handleBoxMdn(event,3855)">
		<path d="M0.0,0L170,0L170,22L0.0,22L0.0,0z" class="box"/>
		<path d="M150.5,3L165.5,3M150.5,18L165.5,18M154.5,6L160.5,6L160.5,12L154.5,12L154.5,6M162.5,9L165.5,9L165.5,15L159.5,15L159.5,14" class="icon" onclick="handleRowClick(event,61,3855,1)"/>
		<path d="M3.5,3L18.5,3M3.5,18L18.5,18M7.5,6L13.5,6L13.5,12L7.5,12L7.5,6M15.5,9L18.5,9L18.5,15L12.5,15L12.5,14M4.5,6L5.5,6M4.5,9L5.5,9M4.5,12L5.5,12M4.5,15L10.5,15" class="icon" onclick="handleRowClick(event,61,3855,2)"/>
		<text xml:space="preserve">
			<tspan x="85" y="14" class="bihdr">ImeIMError1</tspan>
		</text>
		<path d="M0.0,22L170,22L170,44L0.0,44L0.0,22z" class="box"/>
		<text xml:space="preserve">
			<tspan x="4" y="36" class="bi">* ref</tspan>
		</text>
		<path d="M0.0,44L170,44L170,66L0.0,66L0.0,44z" class="box" onmousemove="handleRowMov(event,63,3855)" onmouseout="handleRowMou(63,3855)"/>
		<text xml:space="preserve">
			<tspan x="4" y="58" class="bitbl">* refIxVTbl</tspan>
		</text>
		<path d="M0.0,66L170,66L170,88L0.0,88L0.0,66z" class="box" onmousemove="handleRowMov(event,64,3855)" onmouseout="handleRowMou(64,3855)"/>
		<text xml:space="preserve">
			<tspan x="4" y="80" class="bitbl">* refUref</tspan>
		</text>
		<path d="M0.0,88L170,88L170,110L0.0,110L0.0,88z" class="box" onmousemove="handleRowMov(event,65,3855)" onmouseout="handleRowMou(65,3855)"/>
		<text xml:space="preserve">
			<tspan x="4" y="102" class="bifil">* refNum (ren)</tspan>
		</text>
		<path d="M0.0,110L170,110L170,132L0.0,132L0.0,110z" class="box" onmousemove="handleRowMov(event,66,3855)" onmouseout="handleRowMou(66,3855)"/>
		<text xml:space="preserve">
			<tspan x="4" y="124" class="bifil">* sref (srf)</tspan>
		</text>
		<path d="M0.0,132L170,132L170,154L0.0,154L0.0,132z" class="box" onmousemove="handleRowMov(event,67,3855)" onmouseout="handleRowMou(67,3855)"/>
		<text xml:space="preserve">
			<tspan x="4" y="146" class="bitbl">* Fullsref</tspan>
		</text>
		<path d="M0.0,154L170,154L170,176L0.0,176L0.0,154z" class="box"/>
		<text xml:space="preserve">
			<tspan x="4" y="168" class="bi">* traRefWdbeMSignal</tspan>
		</text>
		<path d="M0.0,176L170,176L170,198L0.0,198L0.0,176z" class="box" onmousemove="handleRowMov(event,69,3855)" onmouseout="handleRowMou(69,3855)"/>
		<text xml:space="preserve">
			<tspan x="4" y="190" class="bifil">* Comment (cmt)</tspan>
		</text>
	</g>
	<g id="box3856" transform="translate(515,759)" onmousedown="handleBoxMdn(event,3856)">
		<path d="M0.0,0L170,0L170,22L0.0,22L0.0,0z" class="box"/>
		<path d="M150.5,3L165.5,3M150.5,18L165.5,18M154.5,6L160.5,6L160.5,12L154.5,12L154.5,6M162.5,9L165.5,9L165.5,15L159.5,15L159.5,14" class="icon" onclick="handleRowClick(event,70,3856,1)"/>
		<text xml:space="preserve">
			<tspan x="85" y="14" class="bihdr">ImeIAMErrorPar1</tspan>
		</text>
		<path d="M0.0,22L170,22L170,44L0.0,44L0.0,22z" class="box"/>
		<text xml:space="preserve">
			<tspan x="4" y="36" class="bi">* ref</tspan>
		</text>
		<path d="M0.0,44L170,44L170,66L0.0,66L0.0,44z" class="box" onmousemove="handleRowMov(event,72,3856)" onmouseout="handleRowMou(72,3856)"/>
		<text xml:space="preserve">
			<tspan x="4" y="58" class="bitbl">* errRefWdbeMError</tspan>
		</text>
		<path d="M0.0,66L170,66L170,88L0.0,88L0.0,66z" class="box" onmousemove="handleRowMov(event,73,3856)" onmouseout="handleRowMou(73,3856)"/>
		<text xml:space="preserve">
			<tspan x="4" y="80" class="bitbl">* errNum</tspan>
		</text>
		<path d="M0.0,88L170,88L170,110L0.0,110L0.0,88z" class="box" onmousemove="handleRowMov(event,74,3856)" onmouseout="handleRowMou(74,3856)"/>
		<text xml:space="preserve">
			<tspan x="4" y="102" class="bifil">* sref (srf)</tspan>
		</text>
		<path d="M0.0,110L170,110L170,144L0.0,144L0.0,110z" class="box" onmousemove="handleRowMov(event,75,3856)" onmouseout="handleRowMou(75,3856)"/>
		<text xml:space="preserve">
			<tspan x="4" y="124" class="bifil">srefIxWdbeVPartype (pty)</tspan>
			<tspan x="4" y="136" class="bi">* ixWdbeVPartype</tspan>
		</text>
		<path d="M0.0,144L170,144L170,178L0.0,178L0.0,144z" class="box" onmousemove="handleRowMov(event,76,3856)" onmouseout="handleRowMou(76,3856)"/>
		<text xml:space="preserve">
			<tspan x="4" y="158" class="bifil">srefRefWdbeMVector (vec)</tspan>
			<tspan x="4" y="170" class="bi">* refWdbeMVector</tspan>
		</text>
		<path d="M0.0,178L170,178L170,200L0.0,200L0.0,178z" class="box" onmousemove="handleRowMov(event,77,3856)" onmouseout="handleRowMou(77,3856)"/>
		<text xml:space="preserve">
			<tspan x="4" y="192" class="bifil">* Length (len)</tspan>
		</text>
		<path d="M0.0,200L170,200L170,222L0.0,222L0.0,200z" class="box" onmousemove="handleRowMov(event,78,3856)" onmouseout="handleRowMou(78,3856)"/>
		<text xml:space="preserve">
			<tspan x="4" y="214" class="bifil">* Comment (cmt)</tspan>
		</text>
	</g>
	<g id="box3857" transform="translate(265,1011)" onmousedown="handleBoxMdn(event,3857)">
		<path d="M0.0,0L170,0L170,22L0.0,22L0.0,0z" class="box"/>
		<path d="M150.5,3L165.5,3M150.5,18L165.5,18M154.5,6L160.5,6L160.5,12L154.5,12L154.5,6M162.5,9L165.5,9L165.5,15L159.5,15L159.5,14" class="icon" onclick="handleRowClick(event,79,3857,1)"/>
		<path d="M3.5,3L18.5,3M3.5,18L18.5,18M7.5,6L13.5,6L13.5,12L7.5,12L7.5,6M15.5,9L18.5,9L18.5,15L12.5,15L12.5,14M4.5,6L5.5,6M4.5,9L5.5,9M4.5,12L5.5,12M4.5,15L10.5,15" class="icon" onclick="handleRowClick(event,79,3857,2)"/>
		<text xml:space="preserve">
			<tspan x="85" y="14" class="bihdr">ImeIMModule</tspan>
		</text>
		<path d="M0.0,22L170,22L170,44L0.0,44L0.0,22z" class="box"/>
		<text xml:space="preserve">
			<tspan x="4" y="36" class="bi">* ref</tspan>
		</text>
		<path d="M0.0,44L170,44L170,66L0.0,66L0.0,44z" class="box"/>
		<text xml:space="preserve">
			<tspan x="4" y="58" class="bi">* ixVBasetype</tspan>
		</text>
		<path d="M0.0,66L170,66L170,88L0.0,88L0.0,66z" class="box" onmousemove="handleRowMov(event,82,3857)" onmouseout="handleRowMou(82,3857)"/>
		<text xml:space="preserve">
			<tspan x="4" y="80" class="bitbl">* hkIxVTbl</tspan>
		</text>
		<path d="M0.0,88L170,88L170,110L0.0,110L0.0,88z" class="box" onmousemove="handleRowMov(event,83,3857)" onmouseout="handleRowMou(83,3857)"/>
		<text xml:space="preserve">
			<tspan x="4" y="102" class="bitbl">* hkUref</tspan>
		</text>
		<path d="M0.0,110L170,110L170,132L0.0,132L0.0,110z" class="box"/>
		<text xml:space="preserve">
			<tspan x="4" y="124" class="bi">* hkNum</tspan>
		</text>
		<path d="M0.0,132L170,132L170,166L0.0,166L0.0,132z" class="box" onmousemove="handleRowMov(event,85,3857)" onmouseout="handleRowMou(85,3857)"/>
		<text xml:space="preserve">
			<tspan x="4" y="146" class="biretr">hsrefSupRefWdbeMModule (sup)</tspan>
			<tspan x="4" y="158" class="bi">* supRefWdbeMModule</tspan>
		</text>
		<path d="M0.0,166L170,166L170,188L0.0,188L0.0,166z" class="box"/>
		<text xml:space="preserve">
			<tspan x="4" y="180" class="bi">* tplRefWdbeMModule</tspan>
		</text>
		<path d="M0.0,188L170,188L170,210L0.0,210L0.0,188z" class="box"/>
		<text xml:space="preserve">
			<tspan x="4" y="202" class="bi">* refWdbeMController</tspan>
		</text>
		<path d="M0.0,210L170,210L170,232L0.0,232L0.0,210z" class="box"/>
		<text xml:space="preserve">
			<tspan x="4" y="224" class="bi">* refWdbeMImbuf</tspan>
		</text>
		<path d="M0.0,232L170,232L170,254L0.0,254L0.0,232z" class="box" onmousemove="handleRowMov(event,89,3857)" onmouseout="handleRowMou(89,3857)"/>
		<text xml:space="preserve">
			<tspan x="4" y="246" class="biretr">* sref (srf)</tspan>
		</text>
		<path d="M0.0,254L170,254L170,276L0.0,276L0.0,254z" class="box"/>
		<text xml:space="preserve">
			<tspan x="4" y="268" class="bi">* srefWdbeKVendor</tspan>
		</text>
		<path d="M0.0,276L170,276L170,298L0.0,298L0.0,276z" class="box"/>
		<text xml:space="preserve">
			<tspan x="4" y="290" class="bi">* Srefrule</tspan>
		</text>
		<path d="M0.0,298L170,298L170,320L0.0,320L0.0,298z" class="box"/>
		<text xml:space="preserve">
			<tspan x="4" y="312" class="bi">* Comment</tspan>
		</text>
	</g>
	<g id="box3858" transform="translate(515,1104)" onmousedown="handleBoxMdn(event,3858)">
		<path d="M0.0,0L170,0L170,22L0.0,22L0.0,0z" class="box"/>
		<path d="M150.5,3L165.5,3M150.5,18L165.5,18M154.5,6L160.5,6L160.5,12L154.5,12L154.5,6M162.5,9L165.5,9L165.5,15L159.5,15L159.5,14" class="icon" onclick="handleRowClick(event,93,3858,1)"/>
		<path d="M3.5,3L18.5,3M3.5,18L18.5,18M7.5,6L13.5,6L13.5,12L7.5,12L7.5,6M15.5,9L18.5,9L18.5,15L12.5,15L12.5,14M4.5,6L5.5,6M4.5,9L5.5,9M4.5,12L5.5,12M4.5,15L10.5,15" class="icon" onclick="handleRowClick(event,93,3858,2)"/>
		<text xml:space="preserve">
			<tspan x="85" y="14" class="bihdr">ImeIMController</tspan>
		</text>
		<path d="M0.0,22L170,22L170,44L0.0,44L0.0,22z" class="box"/>
		<text xml:space="preserve">
			<tspan x="4" y="36" class="bi">* ref</tspan>
		</text>
		<path d="M0.0,44L170,44L170,66L0.0,66L0.0,44z" class="box" onmousemove="handleRowMov(event,95,3858)" onmouseout="handleRowMou(95,3858)"/>
		<text xml:space="preserve">
			<tspan x="4" y="58" class="bitbl">* refWdbeMModule</tspan>
		</text>
		<path d="M0.0,66L170,66L170,88L0.0,88L0.0,66z" class="box"/>
		<text xml:space="preserve">
			<tspan x="4" y="80" class="bi">* Fullsref</tspan>
		</text>
		<path d="M0.0,88L170,88L170,110L0.0,110L0.0,88z" class="box"/>
		<text xml:space="preserve">
			<tspan x="4" y="102" class="bi">* clrRefWdbeMSignal</tspan>
		</text>
	</g>
	<g id="box3859" transform="translate(765,326)" onmousedown="handleBoxMdn(event,3859)">
		<path d="M0.0,0L170,0L170,22L0.0,22L0.0,0z" class="box"/>
		<path d="M150.5,3L165.5,3M150.5,18L165.5,18M154.5,6L160.5,6L160.5,12L154.5,12L154.5,6M162.5,9L165.5,9L165.5,15L159.5,15L159.5,14" class="icon" onclick="handleRowClick(event,98,3859,1)"/>
		<path d="M3.5,3L18.5,3M3.5,18L18.5,18M7.5,6L13.5,6L13.5,12L7.5,12L7.5,6M15.5,9L18.5,9L18.5,15L12.5,15L12.5,14M4.5,6L5.5,6M4.5,9L5.5,9M4.5,12L5.5,12M4.5,15L10.5,15" class="icon" onclick="handleRowClick(event,98,3859,2)"/>
		<text xml:space="preserve">
			<tspan x="85" y="14" class="bihdr">ImeIMVector2</tspan>
		</text>
		<path d="M0.0,22L170,22L170,44L0.0,44L0.0,22z" class="box"/>
		<text xml:space="preserve">
			<tspan x="4" y="36" class="bi">* ref</tspan>
		</text>
		<path d="M0.0,44L170,44L170,78L0.0,78L0.0,44z" class="box" onmousemove="handleRowMov(event,100,3859)" onmouseout="handleRowMou(100,3859)"/>
		<text xml:space="preserve">
			<tspan x="4" y="58" class="bifil">srefIxVBasetype (typ)</tspan>
			<tspan x="4" y="70" class="bi">* ixVBasetype</tspan>
		</text>
		<path d="M0.0,78L170,78L170,100L0.0,100L0.0,78z" class="box" onmousemove="handleRowMov(event,101,3859)" onmouseout="handleRowMou(101,3859)"/>
		<text xml:space="preserve">
			<tspan x="4" y="92" class="bitbl">* hkIxVTbl</tspan>
		</text>
		<path d="M0.0,100L170,100L170,122L0.0,122L0.0,100z" class="box" onmousemove="handleRowMov(event,102,3859)" onmouseout="handleRowMou(102,3859)"/>
		<text xml:space="preserve">
			<tspan x="4" y="114" class="bitbl">* hkUref</tspan>
		</text>
		<path d="M0.0,122L170,122L170,144L0.0,144L0.0,122z" class="box" onmousemove="handleRowMov(event,103,3859)" onmouseout="handleRowMou(103,3859)"/>
		<text xml:space="preserve">
			<tspan x="4" y="136" class="bifil">* sref (srf)</tspan>
		</text>
		<path d="M0.0,144L170,144L170,166L0.0,166L0.0,144z" class="box" onmousemove="handleRowMov(event,104,3859)" onmouseout="handleRowMou(104,3859)"/>
		<text xml:space="preserve">
			<tspan x="4" y="158" class="bifil">* srefsKOption (opt)</tspan>
		</text>
	</g>
	<g id="box3860" transform="translate(1015,334)" onmousedown="handleBoxMdn(event,3860)">
		<path d="M0.0,0L170,0L170,22L0.0,22L0.0,0z" class="box"/>
		<path d="M150.5,3L165.5,3M150.5,18L165.5,18M154.5,6L160.5,6L160.5,12L154.5,12L154.5,6M162.5,9L165.5,9L165.5,15L159.5,15L159.5,14" class="icon" onclick="handleRowClick(event,105,3860,1)"/>
		<text xml:space="preserve">
			<tspan x="85" y="14" class="bihdr">ImeIMVectoritem2</tspan>
		</text>
		<path d="M0.0,22L170,22L170,44L0.0,44L0.0,22z" class="box"/>
		<text xml:space="preserve">
			<tspan x="4" y="36" class="bi">* ref</tspan>
		</text>
		<path d="M0.0,44L170,44L170,66L0.0,66L0.0,44z" class="box" onmousemove="handleRowMov(event,107,3860)" onmouseout="handleRowMou(107,3860)"/>
		<text xml:space="preserve">
			<tspan x="4" y="58" class="bitbl">* vecRefWdbeMVector</tspan>
		</text>
		<path d="M0.0,66L170,66L170,88L0.0,88L0.0,66z" class="box" onmousemove="handleRowMov(event,108,3860)" onmouseout="handleRowMou(108,3860)"/>
		<text xml:space="preserve">
			<tspan x="4" y="80" class="bitbl">* vecNum</tspan>
		</text>
		<path d="M0.0,88L170,88L170,110L0.0,110L0.0,88z" class="box" onmousemove="handleRowMov(event,109,3860)" onmouseout="handleRowMou(109,3860)"/>
		<text xml:space="preserve">
			<tspan x="4" y="102" class="bifil">* sref (srf)</tspan>
		</text>
		<path d="M0.0,110L170,110L170,132L0.0,132L0.0,110z" class="box" onmousemove="handleRowMov(event,110,3860)" onmouseout="handleRowMou(110,3860)"/>
		<text xml:space="preserve">
			<tspan x="4" y="124" class="bifil">* Title (tit)</tspan>
		</text>
		<path d="M0.0,132L170,132L170,154L0.0,154L0.0,132z" class="box" onmousemove="handleRowMov(event,111,3860)" onmouseout="handleRowMou(111,3860)"/>
		<text xml:space="preserve">
			<tspan x="4" y="146" class="bifil">* Comment (cmt)</tspan>
		</text>
	</g>
	<g id="box3861" transform="translate(765,688)" onmousedown="handleBoxMdn(event,3861)">
		<path d="M0.0,0L170,0L170,22L0.0,22L0.0,0z" class="box"/>
		<path d="M150.5,3L165.5,3M150.5,18L165.5,18M154.5,6L160.5,6L160.5,12L154.5,12L154.5,6M162.5,9L165.5,9L165.5,15L159.5,15L159.5,14" class="icon" onclick="handleRowClick(event,112,3861,1)"/>
		<path d="M3.5,3L18.5,3M3.5,18L18.5,18M7.5,6L13.5,6L13.5,12L7.5,12L7.5,6M15.5,9L18.5,9L18.5,15L12.5,15L12.5,14M4.5,6L5.5,6M4.5,9L5.5,9M4.5,12L5.5,12M4.5,15L10.5,15" class="icon" onclick="handleRowClick(event,112,3861,2)"/>
		<text xml:space="preserve">
			<tspan x="85" y="14" class="bihdr">ImeIMCommand2</tspan>
		</text>
		<path d="M0.0,22L170,22L170,44L0.0,44L0.0,22z" class="box"/>
		<text xml:space="preserve">
			<tspan x="4" y="36" class="bi">* ref</tspan>
		</text>
		<path d="M0.0,44L170,44L170,66L0.0,66L0.0,44z" class="box" onmousemove="handleRowMov(event,114,3861)" onmouseout="handleRowMou(114,3861)"/>
		<text xml:space="preserve">
			<tspan x="4" y="58" class="bitbl">* refIxVTbl</tspan>
		</text>
		<path d="M0.0,66L170,66L170,88L0.0,88L0.0,66z" class="box" onmousemove="handleRowMov(event,115,3861)" onmouseout="handleRowMou(115,3861)"/>
		<text xml:space="preserve">
			<tspan x="4" y="80" class="bitbl">* refUref</tspan>
		</text>
		<path d="M0.0,88L170,88L170,110L0.0,110L0.0,88z" class="box" onmousemove="handleRowMov(event,116,3861)" onmouseout="handleRowMou(116,3861)"/>
		<text xml:space="preserve">
			<tspan x="4" y="102" class="bifil">* refNum (ren)</tspan>
		</text>
		<path d="M0.0,110L170,110L170,132L0.0,132L0.0,110z" class="box" onmousemove="handleRowMov(event,117,3861)" onmouseout="handleRowMou(117,3861)"/>
		<text xml:space="preserve">
			<tspan x="4" y="124" class="bifil">* sref (srf)</tspan>
		</text>
		<path d="M0.0,132L170,132L170,154L0.0,154L0.0,132z" class="box" onmousemove="handleRowMov(event,118,3861)" onmouseout="handleRowMou(118,3861)"/>
		<text xml:space="preserve">
			<tspan x="4" y="146" class="bitbl">* Fullsref</tspan>
		</text>
		<path d="M0.0,154L170,154L170,188L0.0,188L0.0,154z" class="box" onmousemove="handleRowMov(event,119,3861)" onmouseout="handleRowMou(119,3861)"/>
		<text xml:space="preserve">
			<tspan x="4" y="168" class="bifil">srefIxVRettype (rty)</tspan>
			<tspan x="4" y="180" class="bi">* ixVRettype</tspan>
		</text>
		<path d="M0.0,188L170,188L170,210L0.0,210L0.0,188z" class="box"/>
		<text xml:space="preserve">
			<tspan x="4" y="202" class="bi">* ivrRefWdbeMSignal</tspan>
		</text>
		<path d="M0.0,210L170,210L170,232L0.0,232L0.0,210z" class="box"/>
		<text xml:space="preserve">
			<tspan x="4" y="224" class="bi">* rvrRefWdbeMSignal</tspan>
		</text>
		<path d="M0.0,232L170,232L170,254L0.0,254L0.0,232z" class="box"/>
		<text xml:space="preserve">
			<tspan x="4" y="246" class="bi">* rerRefWdbeMSignal</tspan>
		</text>
		<path d="M0.0,254L170,254L170,276L0.0,276L0.0,254z" class="box" onmousemove="handleRowMov(event,123,3861)" onmouseout="handleRowMou(123,3861)"/>
		<text xml:space="preserve">
			<tspan x="4" y="268" class="bifil">* Comment (cmt)</tspan>
		</text>
	</g>
	<g id="box3862" transform="translate(1015,547)" onmousedown="handleBoxMdn(event,3862)">
		<path d="M0.0,0L170,0L170,22L0.0,22L0.0,0z" class="box"/>
		<path d="M150.5,3L165.5,3M150.5,18L165.5,18M154.5,6L160.5,6L160.5,12L154.5,12L154.5,6M162.5,9L165.5,9L165.5,15L159.5,15L159.5,14" class="icon" onclick="handleRowClick(event,124,3862,1)"/>
		<text xml:space="preserve">
			<tspan x="85" y="14" class="bihdr">ImeIAMCommandInvpar2</tspan>
		</text>
		<path d="M0.0,22L170,22L170,44L0.0,44L0.0,22z" class="box"/>
		<text xml:space="preserve">
			<tspan x="4" y="36" class="bi">* ref</tspan>
		</text>
		<path d="M0.0,44L170,44L170,66L0.0,66L0.0,44z" class="box" onmousemove="handleRowMov(event,126,3862)" onmouseout="handleRowMou(126,3862)"/>
		<text xml:space="preserve">
			<tspan x="4" y="58" class="bitbl">* cmdRefWdbeMCommand</tspan>
		</text>
		<path d="M0.0,66L170,66L170,88L0.0,88L0.0,66z" class="box" onmousemove="handleRowMov(event,127,3862)" onmouseout="handleRowMou(127,3862)"/>
		<text xml:space="preserve">
			<tspan x="4" y="80" class="bitbl">* cmdNum</tspan>
		</text>
		<path d="M0.0,88L170,88L170,110L0.0,110L0.0,88z" class="box" onmousemove="handleRowMov(event,128,3862)" onmouseout="handleRowMou(128,3862)"/>
		<text xml:space="preserve">
			<tspan x="4" y="102" class="bifil">* sref (srf)</tspan>
		</text>
		<path d="M0.0,110L170,110L170,144L0.0,144L0.0,110z" class="box" onmousemove="handleRowMov(event,129,3862)" onmouseout="handleRowMou(129,3862)"/>
		<text xml:space="preserve">
			<tspan x="4" y="124" class="bifil">srefIxWdbeVPartype (pty)</tspan>
			<tspan x="4" y="136" class="bi">* ixWdbeVPartype</tspan>
		</text>
		<path d="M0.0,144L170,144L170,178L0.0,178L0.0,144z" class="box" onmousemove="handleRowMov(event,130,3862)" onmouseout="handleRowMou(130,3862)"/>
		<text xml:space="preserve">
			<tspan x="4" y="158" class="bifil">srefRefWdbeMVector (vec)</tspan>
			<tspan x="4" y="170" class="bi">* refWdbeMVector</tspan>
		</text>
		<path d="M0.0,178L170,178L170,200L0.0,200L0.0,178z" class="box" onmousemove="handleRowMov(event,131,3862)" onmouseout="handleRowMou(131,3862)"/>
		<text xml:space="preserve">
			<tspan x="4" y="192" class="bifil">* Length (len)</tspan>
		</text>
		<path d="M0.0,200L170,200L170,222L0.0,222L0.0,200z" class="box" onmousemove="handleRowMov(event,132,3862)" onmouseout="handleRowMou(132,3862)"/>
		<text xml:space="preserve">
			<tspan x="4" y="214" class="bifil">* Defval (dfv)</tspan>
		</text>
		<path d="M0.0,222L170,222L170,256L0.0,256L0.0,222z" class="box" onmousemove="handleRowMov(event,133,3862)" onmouseout="handleRowMou(133,3862)"/>
		<text xml:space="preserve">
			<tspan x="4" y="236" class="bifil">srefRefWdbeMVectoritem (vit)</tspan>
			<tspan x="4" y="248" class="bi">* refWdbeMVectoritem</tspan>
		</text>
		<path d="M0.0,256L170,256L170,278L0.0,278L0.0,256z" class="box" onmousemove="handleRowMov(event,134,3862)" onmouseout="handleRowMou(134,3862)"/>
		<text xml:space="preserve">
			<tspan x="4" y="270" class="bifil">* Comment (cmt)</tspan>
		</text>
	</g>
	<g id="box3863" transform="translate(1015,857)" onmousedown="handleBoxMdn(event,3863)">
		<path d="M0.0,0L170,0L170,22L0.0,22L0.0,0z" class="box"/>
		<path d="M150.5,3L165.5,3M150.5,18L165.5,18M154.5,6L160.5,6L160.5,12L154.5,12L154.5,6M162.5,9L165.5,9L165.5,15L159.5,15L159.5,14" class="icon" onclick="handleRowClick(event,135,3863,1)"/>
		<text xml:space="preserve">
			<tspan x="85" y="14" class="bihdr">ImeIAMCommandRetpar2</tspan>
		</text>
		<path d="M0.0,22L170,22L170,44L0.0,44L0.0,22z" class="box"/>
		<text xml:space="preserve">
			<tspan x="4" y="36" class="bi">* ref</tspan>
		</text>
		<path d="M0.0,44L170,44L170,66L0.0,66L0.0,44z" class="box" onmousemove="handleRowMov(event,137,3863)" onmouseout="handleRowMou(137,3863)"/>
		<text xml:space="preserve">
			<tspan x="4" y="58" class="bitbl">* cmdRefWdbeMCommand</tspan>
		</text>
		<path d="M0.0,66L170,66L170,88L0.0,88L0.0,66z" class="box" onmousemove="handleRowMov(event,138,3863)" onmouseout="handleRowMou(138,3863)"/>
		<text xml:space="preserve">
			<tspan x="4" y="80" class="bitbl">* cmdNum</tspan>
		</text>
		<path d="M0.0,88L170,88L170,110L0.0,110L0.0,88z" class="box" onmousemove="handleRowMov(event,139,3863)" onmouseout="handleRowMou(139,3863)"/>
		<text xml:space="preserve">
			<tspan x="4" y="102" class="bifil">* sref (srf)</tspan>
		</text>
		<path d="M0.0,110L170,110L170,144L0.0,144L0.0,110z" class="box" onmousemove="handleRowMov(event,140,3863)" onmouseout="handleRowMou(140,3863)"/>
		<text xml:space="preserve">
			<tspan x="4" y="124" class="bifil">srefIxWdbeVPartype (pty)</tspan>
			<tspan x="4" y="136" class="bi">* ixWdbeVPartype</tspan>
		</text>
		<path d="M0.0,144L170,144L170,178L0.0,178L0.0,144z" class="box" onmousemove="handleRowMov(event,141,3863)" onmouseout="handleRowMou(141,3863)"/>
		<text xml:space="preserve">
			<tspan x="4" y="158" class="bifil">srefRefWdbeMVector (vec)</tspan>
			<tspan x="4" y="170" class="bi">* refWdbeMVector</tspan>
		</text>
		<path d="M0.0,178L170,178L170,200L0.0,200L0.0,178z" class="box" onmousemove="handleRowMov(event,142,3863)" onmouseout="handleRowMou(142,3863)"/>
		<text xml:space="preserve">
			<tspan x="4" y="192" class="bifil">* Length (len)</tspan>
		</text>
		<path d="M0.0,200L170,200L170,222L0.0,222L0.0,200z" class="box" onmousemove="handleRowMov(event,143,3863)" onmouseout="handleRowMou(143,3863)"/>
		<text xml:space="preserve">
			<tspan x="4" y="214" class="bifil">* Comment (cmt)</tspan>
		</text>
	</g>
	<g id="box3864" transform="translate(765,996)" onmousedown="handleBoxMdn(event,3864)">
		<path d="M0.0,0L170,0L170,22L0.0,22L0.0,0z" class="box"/>
		<path d="M150.5,3L165.5,3M150.5,18L165.5,18M154.5,6L160.5,6L160.5,12L154.5,12L154.5,6M162.5,9L165.5,9L165.5,15L159.5,15L159.5,14" class="icon" onclick="handleRowClick(event,144,3864,1)"/>
		<text xml:space="preserve">
			<tspan x="85" y="14" class="bihdr">ImeIRMCommandMController</tspan>
		</text>
		<path d="M0.0,22L170,22L170,44L0.0,44L0.0,22z" class="box"/>
		<text xml:space="preserve">
			<tspan x="4" y="36" class="bi">* ref</tspan>
		</text>
		<path d="M0.0,44L170,44L170,78L0.0,78L0.0,44z" class="box" onmousemove="handleRowMov(event,146,3864)" onmouseout="handleRowMou(146,3864)"/>
		<text xml:space="preserve">
			<tspan x="4" y="58" class="bifil">srefRefWdbeMCommand (cmd)</tspan>
			<tspan x="4" y="70" class="bi">* refWdbeMCommand</tspan>
		</text>
		<path d="M0.0,78L170,78L170,100L0.0,100L0.0,78z" class="box" onmousemove="handleRowMov(event,147,3864)" onmouseout="handleRowMou(147,3864)"/>
		<text xml:space="preserve">
			<tspan x="4" y="92" class="bitbl">* refWdbeMController</tspan>
		</text>
		<path d="M0.0,100L170,100L170,122L0.0,122L0.0,100z" class="box"/>
		<text xml:space="preserve">
			<tspan x="4" y="114" class="bi">* ivrRefWdbeMSignal</tspan>
		</text>
		<path d="M0.0,122L170,122L170,144L0.0,144L0.0,122z" class="box"/>
		<text xml:space="preserve">
			<tspan x="4" y="136" class="bi">* rvrRefWdbeMSignal</tspan>
		</text>
	</g>
	<g id="box3865" transform="translate(765,1164)" onmousedown="handleBoxMdn(event,3865)">
		<path d="M0.0,0L170,0L170,22L0.0,22L0.0,0z" class="box"/>
		<path d="M150.5,3L165.5,3M150.5,18L165.5,18M154.5,6L160.5,6L160.5,12L154.5,12L154.5,6M162.5,9L165.5,9L165.5,15L159.5,15L159.5,14" class="icon" onclick="handleRowClick(event,150,3865,1)"/>
		<path d="M3.5,3L18.5,3M3.5,18L18.5,18M7.5,6L13.5,6L13.5,12L7.5,12L7.5,6M15.5,9L18.5,9L18.5,15L12.5,15L12.5,14M4.5,6L5.5,6M4.5,9L5.5,9M4.5,12L5.5,12M4.5,15L10.5,15" class="icon" onclick="handleRowClick(event,150,3865,2)"/>
		<text xml:space="preserve">
			<tspan x="85" y="14" class="bihdr">ImeIMError2</tspan>
		</text>
		<path d="M0.0,22L170,22L170,44L0.0,44L0.0,22z" class="box"/>
		<text xml:space="preserve">
			<tspan x="4" y="36" class="bi">* ref</tspan>
		</text>
		<path d="M0.0,44L170,44L170,66L0.0,66L0.0,44z" class="box" onmousemove="handleRowMov(event,152,3865)" onmouseout="handleRowMou(152,3865)"/>
		<text xml:space="preserve">
			<tspan x="4" y="58" class="bitbl">* refIxVTbl</tspan>
		</text>
		<path d="M0.0,66L170,66L170,88L0.0,88L0.0,66z" class="box" onmousemove="handleRowMov(event,153,3865)" onmouseout="handleRowMou(153,3865)"/>
		<text xml:space="preserve">
			<tspan x="4" y="80" class="bitbl">* refUref</tspan>
		</text>
		<path d="M0.0,88L170,88L170,110L0.0,110L0.0,88z" class="box" onmousemove="handleRowMov(event,154,3865)" onmouseout="handleRowMou(154,3865)"/>
		<text xml:space="preserve">
			<tspan x="4" y="102" class="bifil">* refNum (ren)</tspan>
		</text>
		<path d="M0.0,110L170,110L170,132L0.0,132L0.0,110z" class="box" onmousemove="handleRowMov(event,155,3865)" onmouseout="handleRowMou(155,3865)"/>
		<text xml:space="preserve">
			<tspan x="4" y="124" class="bifil">* sref (srf)</tspan>
		</text>
		<path d="M0.0,132L170,132L170,154L0.0,154L0.0,132z" class="box" onmousemove="handleRowMov(event,156,3865)" onmouseout="handleRowMou(156,3865)"/>
		<text xml:space="preserve">
			<tspan x="4" y="146" class="bitbl">* Fullsref</tspan>
		</text>
		<path d="M0.0,154L170,154L170,176L0.0,176L0.0,154z" class="box"/>
		<text xml:space="preserve">
			<tspan x="4" y="168" class="bi">* traRefWdbeMSignal</tspan>
		</text>
		<path d="M0.0,176L170,176L170,198L0.0,198L0.0,176z" class="box" onmousemove="handleRowMov(event,158,3865)" onmouseout="handleRowMou(158,3865)"/>
		<text xml:space="preserve">
			<tspan x="4" y="190" class="bifil">* Comment (cmt)</tspan>
		</text>
	</g>
	<g id="box3866" transform="translate(1015,1146)" onmousedown="handleBoxMdn(event,3866)">
		<path d="M0.0,0L170,0L170,22L0.0,22L0.0,0z" class="box"/>
		<path d="M150.5,3L165.5,3M150.5,18L165.5,18M154.5,6L160.5,6L160.5,12L154.5,12L154.5,6M162.5,9L165.5,9L165.5,15L159.5,15L159.5,14" class="icon" onclick="handleRowClick(event,159,3866,1)"/>
		<text xml:space="preserve">
			<tspan x="85" y="14" class="bihdr">ImeIAMErrorPar2</tspan>
		</text>
		<path d="M0.0,22L170,22L170,44L0.0,44L0.0,22z" class="box"/>
		<text xml:space="preserve">
			<tspan x="4" y="36" class="bi">* ref</tspan>
		</text>
		<path d="M0.0,44L170,44L170,66L0.0,66L0.0,44z" class="box" onmousemove="handleRowMov(event,161,3866)" onmouseout="handleRowMou(161,3866)"/>
		<text xml:space="preserve">
			<tspan x="4" y="58" class="bitbl">* errRefWdbeMError</tspan>
		</text>
		<path d="M0.0,66L170,66L170,88L0.0,88L0.0,66z" class="box" onmousemove="handleRowMov(event,162,3866)" onmouseout="handleRowMou(162,3866)"/>
		<text xml:space="preserve">
			<tspan x="4" y="80" class="bitbl">* errNum</tspan>
		</text>
		<path d="M0.0,88L170,88L170,110L0.0,110L0.0,88z" class="box" onmousemove="handleRowMov(event,163,3866)" onmouseout="handleRowMou(163,3866)"/>
		<text xml:space="preserve">
			<tspan x="4" y="102" class="bifil">* sref (srf)</tspan>
		</text>
		<path d="M0.0,110L170,110L170,144L0.0,144L0.0,110z" class="box" onmousemove="handleRowMov(event,164,3866)" onmouseout="handleRowMou(164,3866)"/>
		<text xml:space="preserve">
			<tspan x="4" y="124" class="bifil">srefIxWdbeVPartype (pty)</tspan>
			<tspan x="4" y="136" class="bi">* ixWdbeVPartype</tspan>
		</text>
		<path d="M0.0,144L170,144L170,178L0.0,178L0.0,144z" class="box" onmousemove="handleRowMov(event,165,3866)" onmouseout="handleRowMou(165,3866)"/>
		<text xml:space="preserve">
			<tspan x="4" y="158" class="bifil">srefRefWdbeMVector (vec)</tspan>
			<tspan x="4" y="170" class="bi">* refWdbeMVector</tspan>
		</text>
		<path d="M0.0,178L170,178L170,200L0.0,200L0.0,178z" class="box" onmousemove="handleRowMov(event,166,3866)" onmouseout="handleRowMou(166,3866)"/>
		<text xml:space="preserve">
			<tspan x="4" y="192" class="bifil">* Length (len)</tspan>
		</text>
		<path d="M0.0,200L170,200L170,222L0.0,222L0.0,200z" class="box" onmousemove="handleRowMov(event,167,3866)" onmouseout="handleRowMou(167,3866)"/>
		<text xml:space="preserve">
			<tspan x="4" y="214" class="bifil">* Comment (cmt)</tspan>
		</text>
	</g>
</svg>
