<?xml version="1.0"?>
<svg xmlns:xlink="http://www.w3.org/1999/xlink" xmlns:ev="http://www.w3.org/2001/xml-events" xmlns="http://www.w3.org/2000/svg" height="6400" viewBox="0 0 1600 6400" width="1600">
	<script>
		function handleKdn(event) {return parent.window.handleKdn(event)};

		function handleBoxMdn(event,jnum) {return parent.window.handleBoxMdn(document,event,jnum)};
		function handleBoxMove(event,jnum) {return parent.window.handleBoxMove(document,event,jnum)};
		function handleBoxMup(event,jnum) {return parent.window.handleBoxMup(document,jnum)};

		function handleRowMov(event,jnum,jnumBox) {return parent.window.handleRowMov(event,jnum,jnumBox)};
		function handleRowMou(jnum,jnumBox) {return parent.window.handleRowMou(jnum,jnumBox)};
		function handleRowClick(event,jnum,jnumBox,num) {return parent.window.handleRowClick(event,jnum,jnumBox,num)};

		document.onkeydown = handleKdn;
	</script>
	<style>
		<!-- require inline CSS for standalone view and export to .pdf -->
		g {
			cursor:pointer;
		}
		.box {
			stroke:#000000;
			fill:#FFFFFF;
			stroke-width:1.333px;
			filter:drop-shadow(5px 5px 4px #3F3F3F);
		}
		.boxlite {
			stroke:#7F7F7F;
			fill:#FFFFFF;
			stroke-width:1.333px;
			filter:drop-shadow(5px 5px 4px #BFBFBF);
		}
		.link {
			stroke:#000000;
			stroke-width:0.5px;
		}
		.linklite {
			stroke:#7F7F7F;
			stroke-width:0.5px;
		}
		.icon {
			stroke:#000000;
			fill:#FFFFFF;
			stroke-width:1px;
			cursor:pointer;
		}
		.icon:hover {
			stroke:#FF7F00;
		}
		.bihdr {
			font-family:Helvetica,sans-serif;
			font-size:11px;
			font-weight:bold;
			fill:#000000;
			text-anchor:middle;
		}
		.bihdrlite {
			font-family:Helvetica,sans-serif;
			font-size:11px;
			font-weight:bold;
			fill:#7F7F7F;
			text-anchor:middle;
		}
		.bi {
			font-family:Helvetica,sans-serif;
			font-size:9px;
			fill:#000000;
		}
		.bifil {
			font-family:Helvetica,sans-serif;
			font-size:9px;
			fill:#007FFF;
		}
		.bitbl {
			font-family:Helvetica,sans-serif;
			font-size:9px;
			fill:#0000FF;
		}
		.biretr {
			font-family:Helvetica,sans-serif;
			font-size:9px;
			fill:#FF7F00;
		}
		.bivec {
			font-family:Helvetica,sans-serif;
			font-size:9px;
			fill:#7F7F7F;
		}
		.biaffil {
			font-family:Helvetica,sans-serif;
			font-size:9px;
			fill:#0000FF;
		}
		.bipref {
			font-family:Helvetica,sans-serif;
			font-size:9px;
			fill:#007FFF;
		}
		.biinc {
			font-family:Helvetica,sans-serif;
			font-size:9px;
			fill:#00FFFF;
		}
		.bijovr {
			font-family:Helvetica,sans-serif;
			font-size:9px;
			fill:#007F00;
		}
		.biaxis {
			font-family:Helvetica,sans-serif;
			font-size:9px;
			fill:#007F00;
		}
		.bityp {
			font-family:Helvetica,sans-serif;
			font-size:9px;
			fill:#FF7F00;
		}
	</style>
	<line id="lnk2656" x1="435" y1="163" x2="515" y2="86" class="link"/>
	<line id="lnk2657" x1="185" y1="192" x2="265" y2="163" class="link"/>
	<line id="lnk2658" x1="185" y1="192" x2="265" y2="402" class="link"/>
	<g id="box3845" transform="translate(515,15)" onmousedown="handleBoxMdn(event,3845)">
		<path d="M0.0,0L170,0L170,22L0.0,22L0.0,0z" class="box"/>
		<path d="M150.5,3L165.5,3M150.5,18L165.5,18M154.5,6L160.5,6L160.5,12L154.5,12L154.5,6M162.5,9L165.5,9L165.5,15L159.5,15L159.5,14" class="icon" onclick="handleRowClick(event,1,3845,1)"/>
		<text xml:space="preserve">
			<tspan x="85" y="14" class="bihdr">ImeIJAVKeylistKey</tspan>
		</text>
		<path d="M0.0,22L170,22L170,44L0.0,44L0.0,22z" class="box"/>
		<text xml:space="preserve">
			<tspan x="4" y="36" class="bi">* ref</tspan>
		</text>
		<path d="M0.0,44L170,44L170,66L0.0,66L0.0,44z" class="box" onmousemove="handleRowMov(event,3,3845)" onmouseout="handleRowMou(3,3845)"/>
		<text xml:space="preserve">
			<tspan x="4" y="58" class="bitbl">* refWdbeAVKeylistKey</tspan>
		</text>
		<path d="M0.0,66L170,66L170,88L0.0,88L0.0,66z" class="box" onmousemove="handleRowMov(event,4,3845)" onmouseout="handleRowMou(4,3845)"/>
		<text xml:space="preserve">
			<tspan x="4" y="80" class="bitbl">* x1IxWdbeVLocale</tspan>
		</text>
		<path d="M0.0,88L170,88L170,110L0.0,110L0.0,88z" class="box" onmousemove="handleRowMov(event,5,3845)" onmouseout="handleRowMou(5,3845)"/>
		<text xml:space="preserve">
			<tspan x="4" y="102" class="bifil">* Title (tit)</tspan>
		</text>
		<path d="M0.0,110L170,110L170,132L0.0,132L0.0,110z" class="box" onmousemove="handleRowMov(event,6,3845)" onmouseout="handleRowMou(6,3845)"/>
		<text xml:space="preserve">
			<tspan x="4" y="124" class="bifil">* Comment (cmt)</tspan>
		</text>
	</g>
	<g id="box3846" transform="translate(265,15)" onmousedown="handleBoxMdn(event,3846)">
		<path d="M0.0,0L170,0L170,22L0.0,22L0.0,0z" class="box"/>
		<path d="M150.5,3L165.5,3M150.5,18L165.5,18M154.5,6L160.5,6L160.5,12L154.5,12L154.5,6M162.5,9L165.5,9L165.5,15L159.5,15L159.5,14" class="icon" onclick="handleRowClick(event,7,3846,1)"/>
		<text xml:space="preserve">
			<tspan x="85" y="14" class="bihdr">ImeIAVKeylistKey</tspan>
		</text>
		<path d="M0.0,22L170,22L170,44L0.0,44L0.0,22z" class="box"/>
		<text xml:space="preserve">
			<tspan x="4" y="36" class="bi">* ref</tspan>
		</text>
		<path d="M0.0,44L170,44L170,66L0.0,66L0.0,44z" class="box" onmousemove="handleRowMov(event,9,3846)" onmouseout="handleRowMou(9,3846)"/>
		<text xml:space="preserve">
			<tspan x="4" y="58" class="bitbl">* klsIxWdbeVKeylist</tspan>
		</text>
		<path d="M0.0,66L170,66L170,88L0.0,88L0.0,66z" class="box" onmousemove="handleRowMov(event,10,3846)" onmouseout="handleRowMou(10,3846)"/>
		<text xml:space="preserve">
			<tspan x="4" y="80" class="bitbl">* klsNum</tspan>
		</text>
		<path d="M0.0,88L170,88L170,110L0.0,110L0.0,88z" class="box" onmousemove="handleRowMov(event,11,3846)" onmouseout="handleRowMou(11,3846)"/>
		<text xml:space="preserve">
			<tspan x="4" y="102" class="bitbl">* x1IxWdbeVMaintable</tspan>
		</text>
		<path d="M0.0,110L170,110L170,132L0.0,132L0.0,110z" class="box" onmousemove="handleRowMov(event,12,3846)" onmouseout="handleRowMou(12,3846)"/>
		<text xml:space="preserve">
			<tspan x="4" y="124" class="bitbl">* x1Uref</tspan>
		</text>
		<path d="M0.0,132L170,132L170,154L0.0,154L0.0,132z" class="box" onmousemove="handleRowMov(event,13,3846)" onmouseout="handleRowMou(13,3846)"/>
		<text xml:space="preserve">
			<tspan x="4" y="146" class="bitbl">* Fixed</tspan>
		</text>
		<path d="M0.0,154L170,154L170,176L0.0,176L0.0,154z" class="box" onmousemove="handleRowMov(event,14,3846)" onmouseout="handleRowMou(14,3846)"/>
		<text xml:space="preserve">
			<tspan x="4" y="168" class="bifil">* sref (srf)</tspan>
		</text>
		<path d="M0.0,176L170,176L170,198L0.0,198L0.0,176z" class="box"/>
		<text xml:space="preserve">
			<tspan x="4" y="190" class="bi">* Avail</tspan>
		</text>
		<path d="M0.0,198L170,198L170,220L0.0,220L0.0,198z" class="box"/>
		<text xml:space="preserve">
			<tspan x="4" y="212" class="bi">* Implied</tspan>
		</text>
		<path d="M0.0,220L170,220L170,242L0.0,242L0.0,220z" class="box" onmousemove="handleRowMov(event,17,3846)" onmouseout="handleRowMou(17,3846)"/>
		<text xml:space="preserve">
			<tspan x="4" y="234" class="bitbl">* refJ</tspan>
		</text>
		<path d="M0.0,242L170,242L170,264L0.0,264L0.0,242z" class="box" onmousemove="handleRowMov(event,18,3846)" onmouseout="handleRowMou(18,3846)"/>
		<text xml:space="preserve">
			<tspan x="4" y="256" class="bifil">* Title (tit)</tspan>
		</text>
		<path d="M0.0,264L170,264L170,286L0.0,286L0.0,264z" class="box" onmousemove="handleRowMov(event,19,3846)" onmouseout="handleRowMou(19,3846)"/>
		<text xml:space="preserve">
			<tspan x="4" y="278" class="bifil">* Comment (cmt)</tspan>
		</text>
	</g>
	<g id="box3847" transform="translate(265,331)" onmousedown="handleBoxMdn(event,3847)">
		<path d="M0.0,0L170,0L170,22L0.0,22L0.0,0z" class="box"/>
		<path d="M150.5,3L165.5,3M150.5,18L165.5,18M154.5,6L160.5,6L160.5,12L154.5,12L154.5,6M162.5,9L165.5,9L165.5,15L159.5,15L159.5,14" class="icon" onclick="handleRowClick(event,20,3847,1)"/>
		<text xml:space="preserve">
			<tspan x="85" y="14" class="bihdr">ImeIAMModulePar</tspan>
		</text>
		<path d="M0.0,22L170,22L170,44L0.0,44L0.0,22z" class="box"/>
		<text xml:space="preserve">
			<tspan x="4" y="36" class="bi">* ref</tspan>
		</text>
		<path d="M0.0,44L170,44L170,66L0.0,66L0.0,44z" class="box" onmousemove="handleRowMov(event,22,3847)" onmouseout="handleRowMou(22,3847)"/>
		<text xml:space="preserve">
			<tspan x="4" y="58" class="bitbl">* mdlRefWdbeMModule</tspan>
		</text>
		<path d="M0.0,66L170,66L170,88L0.0,88L0.0,66z" class="box" onmousemove="handleRowMov(event,23,3847)" onmouseout="handleRowMou(23,3847)"/>
		<text xml:space="preserve">
			<tspan x="4" y="80" class="bitbl">* mdlNum</tspan>
		</text>
		<path d="M0.0,88L170,88L170,110L0.0,110L0.0,88z" class="box" onmousemove="handleRowMov(event,24,3847)" onmouseout="handleRowMou(24,3847)"/>
		<text xml:space="preserve">
			<tspan x="4" y="102" class="bifil">* x1SrefKKey (key)</tspan>
		</text>
		<path d="M0.0,110L170,110L170,132L0.0,132L0.0,110z" class="box" onmousemove="handleRowMov(event,25,3847)" onmouseout="handleRowMou(25,3847)"/>
		<text xml:space="preserve">
			<tspan x="4" y="124" class="bifil">* Val (val)</tspan>
		</text>
	</g>
	<g id="box3848" transform="translate(15,15)" onmousedown="handleBoxMdn(event,3848)">
		<path d="M0.0,0L170,0L170,22L0.0,22L0.0,0z" class="box"/>
		<path d="M150.5,3L165.5,3M150.5,18L165.5,18M154.5,6L160.5,6L160.5,12L154.5,12L154.5,6M162.5,9L165.5,9L165.5,15L159.5,15L159.5,14" class="icon" onclick="handleRowClick(event,26,3848,1)"/>
		<text xml:space="preserve">
			<tspan x="85" y="14" class="bihdr">ImeIMModule</tspan>
		</text>
		<path d="M0.0,22L170,22L170,44L0.0,44L0.0,22z" class="box"/>
		<text xml:space="preserve">
			<tspan x="4" y="36" class="bi">* ref</tspan>
		</text>
		<path d="M0.0,44L170,44L170,78L0.0,78L0.0,44z" class="box" onmousemove="handleRowMov(event,28,3848)" onmouseout="handleRowMou(28,3848)"/>
		<text xml:space="preserve">
			<tspan x="4" y="58" class="bifil">srefIxVBasetype (typ)</tspan>
			<tspan x="4" y="70" class="bi">* ixVBasetype</tspan>
		</text>
		<path d="M0.0,78L170,78L170,100L0.0,100L0.0,78z" class="box" onmousemove="handleRowMov(event,29,3848)" onmouseout="handleRowMou(29,3848)"/>
		<text xml:space="preserve">
			<tspan x="4" y="92" class="bitbl">* hkIxVTbl</tspan>
		</text>
		<path d="M0.0,100L170,100L170,122L0.0,122L0.0,100z" class="box" onmousemove="handleRowMov(event,30,3848)" onmouseout="handleRowMou(30,3848)"/>
		<text xml:space="preserve">
			<tspan x="4" y="114" class="bitbl">* hkUref</tspan>
		</text>
		<path d="M0.0,122L170,122L170,144L0.0,144L0.0,122z" class="box"/>
		<text xml:space="preserve">
			<tspan x="4" y="136" class="bi">* hkNum</tspan>
		</text>
		<path d="M0.0,144L170,144L170,178L0.0,178L0.0,144z" class="box" onmousemove="handleRowMov(event,32,3848)" onmouseout="handleRowMou(32,3848)"/>
		<text xml:space="preserve">
			<tspan x="4" y="158" class="bifil">hsrefSupRefWdbeMModule (sup)</tspan>
			<tspan x="4" y="170" class="bi">* supRefWdbeMModule</tspan>
		</text>
		<path d="M0.0,178L170,178L170,212L0.0,212L0.0,178z" class="box" onmousemove="handleRowMov(event,33,3848)" onmouseout="handleRowMou(33,3848)"/>
		<text xml:space="preserve">
			<tspan x="4" y="192" class="bifil">srefTplRefWdbeMModule (tpl)</tspan>
			<tspan x="4" y="204" class="bi">* tplRefWdbeMModule</tspan>
		</text>
		<path d="M0.0,212L170,212L170,234L0.0,234L0.0,212z" class="box"/>
		<text xml:space="preserve">
			<tspan x="4" y="226" class="bi">* refWdbeMController</tspan>
		</text>
		<path d="M0.0,234L170,234L170,256L0.0,256L0.0,234z" class="box"/>
		<text xml:space="preserve">
			<tspan x="4" y="248" class="bi">* refWdbeMImbuf</tspan>
		</text>
		<path d="M0.0,256L170,256L170,278L0.0,278L0.0,256z" class="box" onmousemove="handleRowMov(event,36,3848)" onmouseout="handleRowMou(36,3848)"/>
		<text xml:space="preserve">
			<tspan x="4" y="270" class="bifil">* sref (srf)</tspan>
		</text>
		<path d="M0.0,278L170,278L170,300L0.0,300L0.0,278z" class="box"/>
		<text xml:space="preserve">
			<tspan x="4" y="292" class="bi">* srefWdbeKVendor</tspan>
		</text>
		<path d="M0.0,300L170,300L170,322L0.0,322L0.0,300z" class="box" onmousemove="handleRowMov(event,38,3848)" onmouseout="handleRowMou(38,3848)"/>
		<text xml:space="preserve">
			<tspan x="4" y="314" class="bifil">* Srefrule (srr)</tspan>
		</text>
		<path d="M0.0,322L170,322L170,344L0.0,344L0.0,322z" class="box" onmousemove="handleRowMov(event,39,3848)" onmouseout="handleRowMou(39,3848)"/>
		<text xml:space="preserve">
			<tspan x="4" y="336" class="bifil">* Comment (cmt)</tspan>
		</text>
	</g>
</svg>
