<?xml version="1.0"?>
<svg xmlns:xlink="http://www.w3.org/1999/xlink" xmlns:ev="http://www.w3.org/2001/xml-events" xmlns="http://www.w3.org/2000/svg" height="6400" viewBox="0 0 1600 6400" width="1600">
	<script>
		function handleKdn(event) {return parent.window.handleKdn(event)};

		function handleBoxMdn(event,jnum) {return parent.window.handleBoxMdn(document,event,jnum)};
		function handleBoxMove(event,jnum) {return parent.window.handleBoxMove(document,event,jnum)};
		function handleBoxMup(event,jnum) {return parent.window.handleBoxMup(document,jnum)};

		function handleRowMov(event,jnum,jnumBox) {return parent.window.handleRowMov(event,jnum,jnumBox)};
		function handleRowMou(jnum,jnumBox) {return parent.window.handleRowMou(jnum,jnumBox)};
		function handleRowClick(event,jnum,jnumBox,num) {return parent.window.handleRowClick(event,jnum,jnumBox,num)};

		document.onkeydown = handleKdn;
	</script>
	<style>
		<!-- require inline CSS for standalone view and export to .pdf -->
		g {
			cursor:pointer;
		}
		.box {
			stroke:#000000;
			fill:#FFFFFF;
			stroke-width:1.333px;
			filter:drop-shadow(5px 5px 4px #3F3F3F);
		}
		.boxlite {
			stroke:#7F7F7F;
			fill:#FFFFFF;
			stroke-width:1.333px;
			filter:drop-shadow(5px 5px 4px #BFBFBF);
		}
		.link {
			stroke:#000000;
			stroke-width:0.5px;
		}
		.linklite {
			stroke:#7F7F7F;
			stroke-width:0.5px;
		}
		.icon {
			stroke:#000000;
			fill:#FFFFFF;
			stroke-width:1px;
			cursor:pointer;
		}
		.icon:hover {
			stroke:#FF7F00;
		}
		.bihdr {
			font-family:Helvetica,sans-serif;
			font-size:11px;
			font-weight:bold;
			fill:#000000;
			text-anchor:middle;
		}
		.bihdrlite {
			font-family:Helvetica,sans-serif;
			font-size:11px;
			font-weight:bold;
			fill:#7F7F7F;
			text-anchor:middle;
		}
		.bi {
			font-family:Helvetica,sans-serif;
			font-size:9px;
			fill:#000000;
		}
		.bifil {
			font-family:Helvetica,sans-serif;
			font-size:9px;
			fill:#007FFF;
		}
		.bitbl {
			font-family:Helvetica,sans-serif;
			font-size:9px;
			fill:#0000FF;
		}
		.biretr {
			font-family:Helvetica,sans-serif;
			font-size:9px;
			fill:#FF7F00;
		}
		.bivec {
			font-family:Helvetica,sans-serif;
			font-size:9px;
			fill:#7F7F7F;
		}
		.biaffil {
			font-family:Helvetica,sans-serif;
			font-size:9px;
			fill:#0000FF;
		}
		.bipref {
			font-family:Helvetica,sans-serif;
			font-size:9px;
			fill:#007FFF;
		}
		.biinc {
			font-family:Helvetica,sans-serif;
			font-size:9px;
			fill:#00FFFF;
		}
		.bijovr {
			font-family:Helvetica,sans-serif;
			font-size:9px;
			fill:#007F00;
		}
		.biaxis {
			font-family:Helvetica,sans-serif;
			font-size:9px;
			fill:#007F00;
		}
		.bityp {
			font-family:Helvetica,sans-serif;
			font-size:9px;
			fill:#FF7F00;
		}
	</style>
	<line id="lnk2676" x1="185" y1="190" x2="265" y2="180" class="link"/>
	<line id="lnk2677" x1="435" y1="180" x2="515" y2="178" class="link"/>
	<line id="lnk2678" x1="685" y1="178" x2="765" y2="48" class="link"/>
	<line id="lnk2679" x1="685" y1="178" x2="765" y2="239" class="link"/>
	<g id="box3867" transform="translate(15,31)" onmousedown="handleBoxMdn(event,3867)">
		<path d="M0.0,0L170,0L170,22L0.0,22L0.0,0z" class="box"/>
		<path d="M150.5,3L165.5,3M150.5,18L165.5,18M154.5,6L160.5,6L160.5,12L154.5,12L154.5,6M162.5,9L165.5,9L165.5,15L159.5,15L159.5,14" class="icon" onclick="handleRowClick(event,1,3867,1)"/>
		<path d="M3.5,3L18.5,3M3.5,18L18.5,18M7.5,6L13.5,6L13.5,12L7.5,12L7.5,6M15.5,9L18.5,9L18.5,15L12.5,15L12.5,14M4.5,6L5.5,6M4.5,9L5.5,9M4.5,12L5.5,12M4.5,15L10.5,15" class="icon" onclick="handleRowClick(event,1,3867,2)"/>
		<text xml:space="preserve">
			<tspan x="85" y="14" class="bihdr">ImeIMUnit</tspan>
		</text>
		<path d="M0.0,22L170,22L170,44L0.0,44L0.0,22z" class="box"/>
		<text xml:space="preserve">
			<tspan x="4" y="36" class="bi">* ref</tspan>
		</text>
		<path d="M0.0,44L170,44L170,66L0.0,66L0.0,44z" class="box"/>
		<text xml:space="preserve">
			<tspan x="4" y="58" class="bi">* ixVBasetype</tspan>
		</text>
		<path d="M0.0,66L170,66L170,88L0.0,88L0.0,66z" class="box" onmousemove="handleRowMov(event,4,3867)" onmouseout="handleRowMou(4,3867)"/>
		<text xml:space="preserve">
			<tspan x="4" y="80" class="bitbl">* refIxVTbl</tspan>
		</text>
		<path d="M0.0,88L170,88L170,110L0.0,110L0.0,88z" class="box" onmousemove="handleRowMov(event,5,3867)" onmouseout="handleRowMou(5,3867)"/>
		<text xml:space="preserve">
			<tspan x="4" y="102" class="bitbl">* refUref</tspan>
		</text>
		<path d="M0.0,110L170,110L170,132L0.0,132L0.0,110z" class="box"/>
		<text xml:space="preserve">
			<tspan x="4" y="124" class="bi">* silRefWdbeMUnit</tspan>
		</text>
		<path d="M0.0,132L170,132L170,154L0.0,154L0.0,132z" class="box"/>
		<text xml:space="preserve">
			<tspan x="4" y="146" class="bi">* refWdbeMModule</tspan>
		</text>
		<path d="M0.0,154L170,154L170,176L0.0,176L0.0,154z" class="box" onmousemove="handleRowMov(event,8,3867)" onmouseout="handleRowMou(8,3867)"/>
		<text xml:space="preserve">
			<tspan x="4" y="168" class="biretr">* sref (srf)</tspan>
		</text>
		<path d="M0.0,176L170,176L170,198L0.0,198L0.0,176z" class="box"/>
		<text xml:space="preserve">
			<tspan x="4" y="190" class="bi">* Title</tspan>
		</text>
		<path d="M0.0,198L170,198L170,220L0.0,220L0.0,198z" class="box"/>
		<text xml:space="preserve">
			<tspan x="4" y="212" class="bi">* Fullsref</tspan>
		</text>
		<path d="M0.0,220L170,220L170,242L0.0,242L0.0,220z" class="box"/>
		<text xml:space="preserve">
			<tspan x="4" y="234" class="bi">* srefKPackage</tspan>
		</text>
		<path d="M0.0,242L170,242L170,264L0.0,264L0.0,242z" class="box"/>
		<text xml:space="preserve">
			<tspan x="4" y="256" class="bi">* Easy</tspan>
		</text>
		<path d="M0.0,264L170,264L170,286L0.0,286L0.0,264z" class="box"/>
		<text xml:space="preserve">
			<tspan x="4" y="278" class="bi">* srefKToolch</tspan>
		</text>
		<path d="M0.0,286L170,286L170,308L0.0,308L0.0,286z" class="box"/>
		<text xml:space="preserve">
			<tspan x="4" y="300" class="bi">* Comment</tspan>
		</text>
	</g>
	<g id="box3868" transform="translate(265,15)" onmousedown="handleBoxMdn(event,3868)">
		<path d="M0.0,0L170,0L170,22L0.0,22L0.0,0z" class="box"/>
		<path d="M150.5,3L165.5,3M150.5,18L165.5,18M154.5,6L160.5,6L160.5,12L154.5,12L154.5,6M162.5,9L165.5,9L165.5,15L159.5,15L159.5,14" class="icon" onclick="handleRowClick(event,15,3868,1)"/>
		<path d="M3.5,3L18.5,3M3.5,18L18.5,18M7.5,6L13.5,6L13.5,12L7.5,12L7.5,6M15.5,9L18.5,9L18.5,15L12.5,15L12.5,14M4.5,6L5.5,6M4.5,9L5.5,9M4.5,12L5.5,12M4.5,15L10.5,15" class="icon" onclick="handleRowClick(event,15,3868,2)"/>
		<text xml:space="preserve">
			<tspan x="85" y="14" class="bihdr">ImeIMModule</tspan>
		</text>
		<path d="M0.0,22L170,22L170,44L0.0,44L0.0,22z" class="box"/>
		<text xml:space="preserve">
			<tspan x="4" y="36" class="bi">* ref</tspan>
		</text>
		<path d="M0.0,44L170,44L170,66L0.0,66L0.0,44z" class="box"/>
		<text xml:space="preserve">
			<tspan x="4" y="58" class="bi">* ixVBasetype</tspan>
		</text>
		<path d="M0.0,66L170,66L170,88L0.0,88L0.0,66z" class="box" onmousemove="handleRowMov(event,18,3868)" onmouseout="handleRowMou(18,3868)"/>
		<text xml:space="preserve">
			<tspan x="4" y="80" class="bitbl">* hkIxVTbl</tspan>
		</text>
		<path d="M0.0,88L170,88L170,110L0.0,110L0.0,88z" class="box" onmousemove="handleRowMov(event,19,3868)" onmouseout="handleRowMou(19,3868)"/>
		<text xml:space="preserve">
			<tspan x="4" y="102" class="bitbl">* hkUref</tspan>
		</text>
		<path d="M0.0,110L170,110L170,132L0.0,132L0.0,110z" class="box"/>
		<text xml:space="preserve">
			<tspan x="4" y="124" class="bi">* hkNum</tspan>
		</text>
		<path d="M0.0,132L170,132L170,166L0.0,166L0.0,132z" class="box" onmousemove="handleRowMov(event,21,3868)" onmouseout="handleRowMou(21,3868)"/>
		<text xml:space="preserve">
			<tspan x="4" y="146" class="biretr">hsrefSupRefWdbeMModule (sup)</tspan>
			<tspan x="4" y="158" class="bi">* supRefWdbeMModule</tspan>
		</text>
		<path d="M0.0,166L170,166L170,188L0.0,188L0.0,166z" class="box"/>
		<text xml:space="preserve">
			<tspan x="4" y="180" class="bi">* tplRefWdbeMModule</tspan>
		</text>
		<path d="M0.0,188L170,188L170,210L0.0,210L0.0,188z" class="box"/>
		<text xml:space="preserve">
			<tspan x="4" y="202" class="bi">* refWdbeMController</tspan>
		</text>
		<path d="M0.0,210L170,210L170,232L0.0,232L0.0,210z" class="box"/>
		<text xml:space="preserve">
			<tspan x="4" y="224" class="bi">* refWdbeMImbuf</tspan>
		</text>
		<path d="M0.0,232L170,232L170,254L0.0,254L0.0,232z" class="box" onmousemove="handleRowMov(event,25,3868)" onmouseout="handleRowMou(25,3868)"/>
		<text xml:space="preserve">
			<tspan x="4" y="246" class="biretr">* sref (srf)</tspan>
		</text>
		<path d="M0.0,254L170,254L170,276L0.0,276L0.0,254z" class="box"/>
		<text xml:space="preserve">
			<tspan x="4" y="268" class="bi">* srefWdbeKVendor</tspan>
		</text>
		<path d="M0.0,276L170,276L170,298L0.0,298L0.0,276z" class="box"/>
		<text xml:space="preserve">
			<tspan x="4" y="290" class="bi">* Srefrule</tspan>
		</text>
		<path d="M0.0,298L170,298L170,320L0.0,320L0.0,298z" class="box"/>
		<text xml:space="preserve">
			<tspan x="4" y="312" class="bi">* Comment</tspan>
		</text>
	</g>
	<g id="box3869" transform="translate(515,74)" onmousedown="handleBoxMdn(event,3869)">
		<path d="M0.0,0L170,0L170,22L0.0,22L0.0,0z" class="box"/>
		<path d="M150.5,3L165.5,3M150.5,18L165.5,18M154.5,6L160.5,6L160.5,12L154.5,12L154.5,6M162.5,9L165.5,9L165.5,15L159.5,15L159.5,14" class="icon" onclick="handleRowClick(event,29,3869,1)"/>
		<path d="M3.5,3L18.5,3M3.5,18L18.5,18M7.5,6L13.5,6L13.5,12L7.5,12L7.5,6M15.5,9L18.5,9L18.5,15L12.5,15L12.5,14M4.5,6L5.5,6M4.5,9L5.5,9M4.5,12L5.5,12M4.5,15L10.5,15" class="icon" onclick="handleRowClick(event,29,3869,2)"/>
		<text xml:space="preserve">
			<tspan x="85" y="14" class="bihdr">ImeIMPipeline</tspan>
		</text>
		<path d="M0.0,22L170,22L170,44L0.0,44L0.0,22z" class="box"/>
		<text xml:space="preserve">
			<tspan x="4" y="36" class="bi">* ref</tspan>
		</text>
		<path d="M0.0,44L170,44L170,66L0.0,66L0.0,44z" class="box" onmousemove="handleRowMov(event,31,3869)" onmouseout="handleRowMou(31,3869)"/>
		<text xml:space="preserve">
			<tspan x="4" y="58" class="bitbl">* hsmRefWdbeMModule</tspan>
		</text>
		<path d="M0.0,66L170,66L170,88L0.0,88L0.0,66z" class="box" onmousemove="handleRowMov(event,32,3869)" onmouseout="handleRowMou(32,3869)"/>
		<text xml:space="preserve">
			<tspan x="4" y="80" class="bifil">* sref (srf)</tspan>
		</text>
		<path d="M0.0,88L170,88L170,110L0.0,110L0.0,88z" class="box" onmousemove="handleRowMov(event,33,3869)" onmouseout="handleRowMou(33,3869)"/>
		<text xml:space="preserve">
			<tspan x="4" y="102" class="bifil">* clkSrefWdbeMSignal (clk)</tspan>
		</text>
		<path d="M0.0,110L170,110L170,132L0.0,132L0.0,110z" class="box" onmousemove="handleRowMov(event,34,3869)" onmouseout="handleRowMou(34,3869)"/>
		<text xml:space="preserve">
			<tspan x="4" y="124" class="bifil">* clgSrefWdbeMSignal (clg)</tspan>
		</text>
		<path d="M0.0,132L170,132L170,154L0.0,154L0.0,132z" class="box" onmousemove="handleRowMov(event,35,3869)" onmouseout="handleRowMou(35,3869)"/>
		<text xml:space="preserve">
			<tspan x="4" y="146" class="bifil">* asrSrefWdbeMSignal (asr)</tspan>
		</text>
		<path d="M0.0,154L170,154L170,176L0.0,176L0.0,154z" class="box" onmousemove="handleRowMov(event,36,3869)" onmouseout="handleRowMou(36,3869)"/>
		<text xml:space="preserve">
			<tspan x="4" y="168" class="bifil">* Depth (dth)</tspan>
		</text>
		<path d="M0.0,176L170,176L170,198L0.0,198L0.0,176z" class="box" onmousemove="handleRowMov(event,37,3869)" onmouseout="handleRowMou(37,3869)"/>
		<text xml:space="preserve">
			<tspan x="4" y="190" class="bifil">* Comment (cmt)</tspan>
		</text>
	</g>
	<g id="box3870" transform="translate(765,15)" onmousedown="handleBoxMdn(event,3870)">
		<path d="M0.0,0L170,0L170,22L0.0,22L0.0,0z" class="box"/>
		<path d="M150.5,3L165.5,3M150.5,18L165.5,18M154.5,6L160.5,6L160.5,12L154.5,12L154.5,6M162.5,9L165.5,9L165.5,15L159.5,15L159.5,14" class="icon" onclick="handleRowClick(event,38,3870,1)"/>
		<text xml:space="preserve">
			<tspan x="85" y="14" class="bihdr">ImeICSegment</tspan>
		</text>
		<path d="M0.0,22L170,22L170,56L0.0,56L0.0,22z" class="box" onmousemove="handleRowMov(event,39,3870)" onmouseout="handleRowMou(39,3870)"/>
		<text xml:space="preserve">
			<tspan x="4" y="36" class="bifil">iref (irf)</tspan>
			<tspan x="4" y="48" class="bi">* ref</tspan>
		</text>
	</g>
	<g id="box3871" transform="translate(765,101)" onmousedown="handleBoxMdn(event,3871)">
		<path d="M0.0,0L170,0L170,22L0.0,22L0.0,0z" class="box"/>
		<path d="M150.5,3L165.5,3M150.5,18L165.5,18M154.5,6L160.5,6L160.5,12L154.5,12L154.5,6M162.5,9L165.5,9L165.5,15L159.5,15L159.5,14" class="icon" onclick="handleRowClick(event,40,3871,1)"/>
		<text xml:space="preserve">
			<tspan x="85" y="14" class="bihdr">ImeIMSegment</tspan>
		</text>
		<path d="M0.0,22L170,22L170,44L0.0,44L0.0,22z" class="box"/>
		<text xml:space="preserve">
			<tspan x="4" y="36" class="bi">* ref</tspan>
		</text>
		<path d="M0.0,44L170,44L170,78L0.0,78L0.0,44z" class="box" onmousemove="handleRowMov(event,42,3871)" onmouseout="handleRowMou(42,3871)"/>
		<text xml:space="preserve">
			<tspan x="4" y="58" class="bifil">irefRefWdbeCSegment (clu)</tspan>
			<tspan x="4" y="70" class="bi">* refWdbeCSegment</tspan>
		</text>
		<path d="M0.0,78L170,78L170,100L0.0,100L0.0,78z" class="box" onmousemove="handleRowMov(event,43,3871)" onmouseout="handleRowMou(43,3871)"/>
		<text xml:space="preserve">
			<tspan x="4" y="92" class="bitbl">* pplRefWdbeMPipeline</tspan>
		</text>
		<path d="M0.0,100L170,100L170,122L0.0,122L0.0,100z" class="box" onmousemove="handleRowMov(event,44,3871)" onmouseout="handleRowMou(44,3871)"/>
		<text xml:space="preserve">
			<tspan x="4" y="114" class="bitbl">* pplNum</tspan>
		</text>
		<path d="M0.0,122L170,122L170,156L0.0,156L0.0,122z" class="box" onmousemove="handleRowMov(event,45,3871)" onmouseout="handleRowMou(45,3871)"/>
		<text xml:space="preserve">
			<tspan x="4" y="136" class="bifil">hsrefSupRefWdbeMSegment (sup)</tspan>
			<tspan x="4" y="148" class="bi">* supRefWdbeMSegment</tspan>
		</text>
		<path d="M0.0,156L170,156L170,178L0.0,178L0.0,156z" class="box" onmousemove="handleRowMov(event,46,3871)" onmouseout="handleRowMou(46,3871)"/>
		<text xml:space="preserve">
			<tspan x="4" y="170" class="bifil">* sref (srf)</tspan>
		</text>
		<path d="M0.0,178L170,178L170,200L0.0,200L0.0,178z" class="box" onmousemove="handleRowMov(event,47,3871)" onmouseout="handleRowMou(47,3871)"/>
		<text xml:space="preserve">
			<tspan x="4" y="192" class="bifil">* Infmt (ifm)</tspan>
		</text>
		<path d="M0.0,200L170,200L170,222L0.0,222L0.0,200z" class="box" onmousemove="handleRowMov(event,48,3871)" onmouseout="handleRowMou(48,3871)"/>
		<text xml:space="preserve">
			<tspan x="4" y="214" class="bifil">* Outfmt (ofm)</tspan>
		</text>
		<path d="M0.0,222L170,222L170,244L0.0,244L0.0,222z" class="box" onmousemove="handleRowMov(event,49,3871)" onmouseout="handleRowMou(49,3871)"/>
		<text xml:space="preserve">
			<tspan x="4" y="236" class="bifil">* Latency (lcy)</tspan>
		</text>
		<path d="M0.0,244L170,244L170,266L0.0,266L0.0,244z" class="box" onmousemove="handleRowMov(event,50,3871)" onmouseout="handleRowMou(50,3871)"/>
		<text xml:space="preserve">
			<tspan x="4" y="258" class="bifil">* Comment (cmt)</tspan>
		</text>
	</g>
</svg>
